<svg width="145" height="145" viewBox="0 0 145 145" fill="none" xmlns="http://www.w3.org/2000/svg">
<path d="M126.696 117.001H17.2397C16.2818 116.995 15.3422 116.736 14.5148 116.25C13.6874 115.764 13.0012 115.068 12.5248 114.231C12.0483 113.395 11.7984 112.447 11.7998 111.483C11.8013 110.518 12.0541 109.571 12.5331 108.736C17.0413 100.884 22.7125 81.0549 22.7125 56.3908C22.7125 43.2387 27.9019 30.6253 37.1391 21.3254C46.3763 12.0254 58.9046 6.80078 71.968 6.80078C85.0313 6.80078 97.5596 12.0254 106.797 21.3254C116.034 30.6253 121.223 43.2387 121.223 56.3908C121.223 81.0618 126.901 100.884 131.417 108.736C131.896 109.572 132.149 110.52 132.15 111.486C132.151 112.451 131.899 113.4 131.421 114.237C130.943 115.074 130.255 115.77 129.426 116.255C128.597 116.74 127.655 116.997 126.696 117.001Z" fill="#F8F8F8"/>
<path d="M136.453 105.865C132.638 99.267 126.967 80.5978 126.967 56.2139C126.967 41.5703 121.174 27.5264 110.861 17.1718C100.549 6.81716 86.5623 1 71.9784 1C57.3945 1 43.4079 6.81716 33.0956 17.1718C22.7832 27.5264 16.9898 41.5703 16.9898 56.2139C16.9898 80.6047 11.3122 99.267 7.49735 105.865C6.52316 107.542 6.0067 109.448 6.00006 111.39C5.99343 113.332 6.49684 115.241 7.45953 116.925C8.42223 118.609 9.81017 120.009 11.4834 120.982C13.1566 121.956 15.0559 122.469 16.9898 122.471H45.0409C46.3095 128.704 49.6834 134.306 54.5919 138.329C59.5004 142.353 65.6422 144.55 71.9784 144.55C78.3147 144.55 84.4564 142.353 89.3649 138.329C94.2734 134.306 97.6473 128.704 98.916 122.471H126.967C128.9 122.468 130.799 121.954 132.471 120.98C134.143 120.005 135.53 118.606 136.492 116.922C137.454 115.238 137.957 113.329 137.95 111.388C137.943 109.447 137.427 107.542 136.453 105.865ZM71.9784 133.513C68.5679 133.512 65.2415 132.45 62.4571 130.472C59.6727 128.495 57.5672 125.699 56.4304 122.471H87.5265C86.3896 125.699 84.2841 128.495 81.4997 130.472C78.7153 132.45 75.389 133.512 71.9784 133.513ZM16.9898 111.428C22.2824 102.29 27.9875 81.1154 27.9875 56.2139C27.9875 44.499 32.6222 33.2639 40.8721 24.9802C49.122 16.6965 60.3113 12.0428 71.9784 12.0428C83.6456 12.0428 94.8348 16.6965 103.085 24.9802C111.335 33.2639 115.969 44.499 115.969 56.2139C115.969 81.0947 121.661 102.269 126.967 111.428H16.9898Z" fill="#D9D9D9"/>
</svg>
