<svg width="25" height="24" viewBox="0 0 25 24" fill="none" xmlns="http://www.w3.org/2000/svg">
<path d="M10.5 8H5.5C3.5 8 2.5 9 2.5 11V19C2.5 21 3.5 22 5.5 22H13.5C11.5 22 10.5 21 10.5 19V8ZM10.5 8V5C10.5 4.63 10.53 4.3 10.61 4M18.5 11V12.5M18.5 6V7.5M6.5 13V17M14.5 6V7.5M14.5 11V12.5M17.5 17H15.5C14.95 17 14.5 17.45 14.5 18V22H18.5V18C18.5 17.45 18.05 17 17.5 17Z" stroke="#25A0D5" stroke-width="1.5" stroke-miterlimit="10" stroke-linecap="round" stroke-linejoin="round"/>
<path d="M10.5 19V5C10.5 3 11.5 2 13.5 2H19.5C21.5 2 22.5 3 22.5 5V19C22.5 21 21.5 22 19.5 22H13.5C11.5 22 10.5 21 10.5 19Z" stroke="#25A0D5" stroke-width="1.5" stroke-miterlimit="10" stroke-linecap="round" stroke-linejoin="round"/>
</svg>
