<svg width="26" height="25" viewBox="0 0 26 25" fill="none" xmlns="http://www.w3.org/2000/svg">
<g id="Icon">
<path id="Path" d="M22 3H4C3.72386 3 3.5 3.22386 3.5 3.5V14.5H22.5V3.5C22.5 3.22386 22.2761 3 22 3Z" stroke="#25A0D5"/>
<path id="Path_2" d="M24.5 14.6176C24.7761 14.6176 25 14.3938 25 14.1176V3C24.9983 1.61997 23.88 0.501653 22.5 0.5H3.5C2.11997 0.501653 1.00165 1.61997 1 3V17C1.00165 18.38 2.11997 19.4983 3.5 19.5H9V21.7325L7.7225 22.5825C7.58302 22.6756 7.49947 22.8323 7.5 23V23.5C7.5 24.0523 7.94772 24.5 8.5 24.5H17.5C18.0523 24.5 18.5 24.0523 18.5 23.5V23C18.5 22.8329 18.4165 22.6768 18.2775 22.584L17 21.7325V19.5882C17 19.3121 16.7761 19.0882 16.5 19.0882C16.2239 19.0882 16 19.3121 16 19.5882V22C16 22.1671 16.0835 22.3232 16.2225 22.416L17.5 23.2675V23.5H8.5V23.2675L9.7775 22.4175C9.91698 22.3244 10.0005 22.1677 10 22V19.5H22.5C23.88 19.4983 24.9983 18.38 25 17V14.5C25 14.2239 24.7761 14 24.5 14H1.88235C1.60621 14 1.38235 14.2239 1.38235 14.5C1.38235 14.7761 1.60621 15 1.88235 15H24V17C24 17.8284 23.3284 18.5 22.5 18.5H3.5C2.67157 18.5 2 17.8284 2 17V3C2 2.17157 2.67157 1.5 3.5 1.5H22.5C23.3284 1.5 24 2.17157 24 3V14.1176C24 14.3938 24.2239 14.6176 24.5 14.6176Z" fill="#25A0D5" stroke="#25A0D5" stroke-width="0.4"/>
</g>
</svg>
