<svg width="26" height="28" viewBox="0 0 26 28" fill="none" xmlns="http://www.w3.org/2000/svg">
<path d="M17.3337 15.0497V19.9497C17.3337 24.033 15.817 25.6663 12.0253 25.6663H7.47533C3.68366 25.6663 2.16699 24.033 2.16699 19.9497V15.0497C2.16699 10.9663 3.68366 9.33301 7.47533 9.33301H12.0253C15.817 9.33301 17.3337 10.9663 17.3337 15.0497Z" stroke="#B0B0B0" stroke-width="1.5" stroke-linecap="round" stroke-linejoin="round"/>
<path d="M23.8337 8.04967V12.9497C23.8337 17.033 22.317 18.6663 18.5253 18.6663H17.3337V15.0497C17.3337 10.9663 15.817 9.33301 12.0253 9.33301H8.66699V8.04967C8.66699 3.96634 10.1837 2.33301 13.9753 2.33301H18.5253C22.317 2.33301 23.8337 3.96634 23.8337 8.04967Z" stroke="#B0B0B0" stroke-width="1.5" stroke-linecap="round" stroke-linejoin="round"/>
</svg>
