<svg width="96" height="59" viewBox="0 0 96 59" fill="none" xmlns="http://www.w3.org/2000/svg">
<g clip-path="url(#clip0_518_700)">
<path opacity="0.48" d="M58.343 13.0041V22.4096C58.343 22.4241 58.343 22.4399 58.3443 22.4544V12.9487C58.343 12.9659 58.343 12.9856 58.343 13.0041Z" fill="#231F20"/>
<path d="M25.0626 6.81084C24.378 6.57234 23.6405 6.44189 22.8751 6.44189C21.1855 6.44189 19.6441 7.07174 18.4762 8.11006C17.1189 9.3131 16.2661 11.0669 16.2661 13.0171V22.4226C16.2661 23.5966 15.326 24.5572 14.1567 24.5994V28.9991C15.8146 28.978 17.3255 28.3521 18.4762 27.3309C19.6441 28.3692 21.1855 28.9991 22.8751 28.9991C24.5647 28.9991 26.1061 28.3692 27.2727 27.3309C27.3667 27.2479 27.4581 27.1609 27.5468 27.0727C28.7425 25.8828 29.4827 24.2383 29.4827 22.4226V13.0171C29.4827 10.1498 27.6368 7.70949 25.0626 6.81084ZM25.0626 22.4213C25.0626 23.6217 24.0814 24.5994 22.8751 24.5994C21.6688 24.5994 20.6862 23.6217 20.6862 22.4213V13.0158C20.6862 11.8154 21.6675 10.839 22.8751 10.839C24.0828 10.839 25.0626 11.8154 25.0626 13.0158V22.4213Z" fill="#25A0D5"/>
<path d="M52.2307 38.2837C52.8702 38.061 53.5575 37.9385 54.2725 37.9385C55.8496 37.9385 57.2864 38.5262 58.3775 39.4946C59.6434 40.6173 60.4392 42.2538 60.4392 44.0722V52.8466C60.4392 53.9416 61.3158 54.8376 62.4083 54.8784V58.983C60.8616 58.9632 59.4514 58.3795 58.3775 57.4268C57.2877 58.3953 55.8496 58.983 54.2725 58.983C52.6954 58.983 51.2587 58.3953 50.1689 57.4268C50.0815 57.3491 49.9955 57.2687 49.9134 57.1857C48.7971 56.0749 48.1072 54.5411 48.1072 52.8466V44.0722C48.1072 41.3974 49.8299 39.1204 52.2307 38.2824V38.2837ZM52.2307 52.8479C52.2307 53.9679 53.1457 54.8811 54.2725 54.8811C55.3994 54.8811 56.3157 53.9692 56.3157 52.8479V44.0735C56.3157 42.9535 55.4007 42.0417 54.2725 42.0417C53.1443 42.0417 52.2307 42.9522 52.2307 44.0735V52.8479Z" fill="#25A0D5"/>
<path d="M87.2418 44.0892V58.9999H83.1184V44.0892C83.1184 42.9692 82.2034 42.0573 81.0765 42.0573C79.9496 42.0573 79.0333 42.9678 79.0333 44.0892V58.9999H74.8939V44.0905C74.8939 42.9705 73.9789 42.0573 72.852 42.0573C71.7252 42.0573 70.8088 42.9692 70.8088 44.0905V58.9999H66.6854V44.0905C66.6854 42.9955 65.8088 42.0995 64.7163 42.0586V37.9541C66.2629 37.9739 67.6732 38.5576 68.7471 39.5103C69.8369 38.5418 71.2749 37.9541 72.852 37.9541C74.4291 37.9541 75.8659 38.5418 76.9556 39.5103C76.9583 39.5129 76.9596 39.5142 76.9623 39.5169C76.9649 39.5155 76.9676 39.5129 76.9702 39.5103C78.06 38.5418 79.4981 37.9541 81.0752 37.9541C81.7902 37.9541 82.4775 38.0753 83.117 38.2993C85.5178 39.1374 87.2405 41.4143 87.2405 44.0892H87.2418Z" fill="#25A0D5"/>
<path d="M45.7938 44.0892V58.9999H41.6704V44.0892C41.6704 42.9692 40.7554 42.0573 39.6285 42.0573C38.5016 42.0573 37.5853 42.9678 37.5853 44.0892V58.9999H33.4459V44.0905C33.4459 42.9705 32.5309 42.0573 31.404 42.0573C30.2772 42.0573 29.3608 42.9692 29.3608 44.0905V58.9999H25.2374V44.0905C25.2374 42.9955 24.3608 42.0995 23.2683 42.0586V37.9541C24.8149 37.9739 26.2252 38.5576 27.2991 39.5103C28.3889 38.5418 29.8269 37.9541 31.404 37.9541C32.9811 37.9541 34.4179 38.5418 35.5077 39.5103C35.5103 39.5129 35.5116 39.5142 35.5143 39.5169C35.5169 39.5155 35.5196 39.5129 35.5222 39.5103C36.612 38.5418 38.0501 37.9541 39.6272 37.9541C40.3422 37.9541 41.0295 38.0753 41.669 38.2993C44.0698 39.1374 45.7925 41.4143 45.7925 44.0892H45.7938Z" fill="#25A0D5"/>
<path opacity="0.49" d="M53.9231 13.0039V22.4516C53.9244 22.441 53.9244 22.4331 53.9244 22.4226V12.938C53.9231 12.9604 53.9231 12.9815 53.9231 13.0039Z" fill="#231F20"/>
<path d="M95.6702 4.53674C94.8029 1.9093 92.3187 0.0131767 89.391 0.0131767C87.7079 0.0131767 86.1745 0.637752 85.0079 1.66817C83.6599 2.85671 82.8019 4.58813 82.782 6.51851C82.7833 6.52115 82.7833 6.52378 82.782 6.52906C82.7833 6.54091 82.7833 6.55277 82.7833 6.56463V22.4096C82.7833 22.4254 82.7833 22.4412 82.782 22.4584C82.7833 22.4597 82.7833 22.461 82.782 22.4623C82.7542 23.639 81.7836 24.5877 80.5945 24.5877H69.3311C68.1247 24.5877 67.1422 23.61 67.1422 22.4096V13.0041C67.1422 10.1368 65.2963 7.69519 62.7221 6.79654C62.0375 6.55804 61.2999 6.42759 60.5332 6.42759C59.7665 6.42759 59.0303 6.55673 58.347 6.79654C58.3444 6.79786 58.3417 6.79786 58.3378 6.79918C55.7861 7.69256 53.9534 10.0999 53.9269 12.9382V22.4228C53.9269 22.4333 53.9269 22.4412 53.9256 22.4518C53.911 23.639 52.9338 24.6009 51.7381 24.6009H40.4746C39.2683 24.6009 38.2858 23.6232 38.2858 22.4228V6.57649C38.2858 4.62634 37.4317 2.87252 36.0757 1.66817C34.9065 0.632482 33.3678 0.00263534 31.6821 0V4.39838C32.8845 4.40365 33.8617 5.37873 33.8617 6.57649V22.4215C33.8617 24.3716 34.7145 26.1254 36.0718 27.3298C37.2384 28.3681 38.781 28.998 40.4707 28.998H51.7341C53.4264 28.998 54.9704 28.3642 56.141 27.3219C57.3062 28.3576 58.8449 28.9848 60.5306 28.9848C62.2163 28.9848 63.7629 28.3549 64.9295 27.3166C66.0961 28.3549 67.6388 28.9848 69.3284 28.9848H80.5918C82.2735 28.9848 83.8096 28.3589 84.9762 27.3298C86.3268 26.136 87.1836 24.4019 87.2008 22.4676V22.4571C87.1995 22.4478 87.1995 22.4412 87.1995 22.432V6.58967C87.1995 6.58044 87.1995 6.57254 87.2008 6.56331V6.54091C87.226 5.36028 88.1979 4.41024 89.3883 4.41024C90.5788 4.41024 91.5772 5.38664 91.5772 6.58835V22.432C91.5772 22.4821 91.5759 22.5322 91.5719 22.5796V28.9966H95.992V10.6204C95.992 10.5703 95.9933 10.5203 95.9973 10.4728V6.59099C95.9973 5.87417 95.8821 5.18371 95.6676 4.53674H95.6702ZM62.7208 22.4096C62.7208 23.61 61.7396 24.5877 60.5319 24.5877C59.3243 24.5877 58.3695 23.635 58.3457 22.4544C58.3444 22.4399 58.3444 22.4241 58.3444 22.4096V13.0041C58.3444 12.9856 58.3444 12.9659 58.3457 12.9487C58.3748 11.7734 59.3441 10.826 60.5319 10.826C61.7197 10.826 62.7208 11.8037 62.7208 13.0041V22.4096Z" fill="#25A0D5"/>
<path d="M20.9591 54.897V59.0002C19.3859 58.9989 17.9519 58.4112 16.8647 57.444C15.6001 56.3214 14.803 54.6835 14.803 52.8664V31.9458H18.9265V52.8664C18.9265 53.9825 19.8375 54.893 20.9591 54.8983V54.897Z" fill="#25A0D5"/>
<path d="M93.7278 33.4542C93.7278 34.1512 94.3038 34.7191 95.0123 34.7191H96.0001V36.8722H95.0123C94.0536 36.8722 93.1862 36.4901 92.5572 35.8708C91.9296 35.2528 91.5403 34.3989 91.5403 33.4542C91.5403 31.5673 93.0949 30.0361 95.0123 30.0361H96.0001V32.1892H95.0123C94.3038 32.1892 93.7278 32.7571 93.7278 33.4542Z" fill="#25A0D5"/>
<path d="M4.39096 31.1287V39.6633H9.21228V44.0327H4.39096V52.4526C4.39096 53.6411 5.36158 54.6109 6.55599 54.6149H12.4896V58.9843H6.55599C4.88223 58.9829 3.35413 58.357 2.19548 57.3266C0.848796 56.1315 0 54.3869 0 52.4526V31.1287C0 29.1917 0.848796 27.4511 2.19548 26.2546C3.35281 25.2229 4.88091 24.5997 6.55599 24.5957H12.4896V28.9651H6.55599C5.36158 28.973 4.39096 29.9415 4.39096 31.1287Z" fill="#25A0D5"/>
</g>
<defs>
<clipPath id="clip0_518_700">
<rect width="96" height="59" fill="white"/>
</clipPath>
</defs>
</svg>
