<svg width="25" height="18" viewBox="0 0 25 18" fill="none" xmlns="http://www.w3.org/2000/svg">
<g id="Group 30">
<g id="Subtract" style="mix-blend-mode:multiply">
<path d="M4.47119 4.27051C4.47119 3.71822 4.91891 3.27051 5.47119 3.27051H19.7561C20.3084 3.27051 20.7561 3.71822 20.7561 4.27051V4.44013C20.7561 4.74113 20.6205 5.02611 20.387 5.21601L13.2892 10.9874C12.9234 11.2848 12.3995 11.2864 12.032 10.991L4.84483 5.21609C4.6086 5.02628 4.47119 4.73959 4.47119 4.43656V4.27051Z" fill="rgb(6 182 212)"/>
</g>
<g id="&#240;&#159;&#166;&#134; icon &#34;mail&#34;">
<path id="Vector" d="M1.18115 14.6599V3.34094C1.18115 2.09068 2.19469 1.07715 3.44495 1.07715H21.5553C22.8056 1.07715 23.8191 2.09068 23.8191 3.34094V14.6599C23.8191 15.9102 22.8056 16.9237 21.5553 16.9237H3.44495C2.19469 16.9237 1.18115 15.9102 1.18115 14.6599Z" stroke="rgb(6 182 212)" stroke-width="1.5"/>
</g>
</g>
</svg>
