<svg width="49" height="49" viewBox="0 0 49 49" fill="none" xmlns="http://www.w3.org/2000/svg">
<mask id="mask0_71_295" style="mask-type:luminance" maskUnits="userSpaceOnUse" x="0" y="0" width="49" height="49">
<path d="M0 0H49V49H0V0Z" fill="white"/>
</mask>
<g mask="url(#mask0_71_295)">
<path d="M19.2708 18.9081C19.1224 18.8124 18.9463 18.7578 18.7578 18.7578C18.2295 18.7578 17.8008 19.1866 17.8008 19.7148C17.8008 19.9656 17.8973 20.1943 18.0554 20.3647C18.2305 20.5542 18.4802 20.6719 18.7578 20.6719C19.286 20.6719 19.7148 20.2431 19.7148 19.7148C19.7148 19.3751 19.5378 19.0775 19.2708 18.9081Z" fill="url(#paint0_linear_71_295)"/>
<path d="M45.5547 24.5C45.5547 24.5 37.1854 36.9414 24.5 36.9414C11.8146 36.9414 3.44531 24.5 3.44531 24.5C3.44531 24.5 11.8146 12.0586 24.5 12.0586C37.1854 12.0586 45.5547 24.5 45.5547 24.5Z" stroke="url(#paint1_linear_71_295)" stroke-width="2" stroke-linecap="round" stroke-linejoin="round"/>
<path d="M21.7638 17.3471C21.7982 17.3337 21.8328 17.3213 21.8672 17.3089C21.9054 17.2945 21.9438 17.2811 21.9821 17.2677C22.0165 17.2553 22.051 17.2438 22.0864 17.2323C22.1313 17.217 22.1782 17.2017 22.2242 17.1873C22.2835 17.1691 22.3429 17.151 22.4031 17.1347C22.4615 17.1175 22.5209 17.1012 22.5812 17.0859C22.6443 17.0696 22.7074 17.0543 22.7706 17.0399C22.83 17.0265 22.8884 17.0131 22.9477 17.0017C22.9955 16.9911 23.0434 16.9816 23.0922 16.9729C23.1343 16.9653 23.1764 16.9576 23.2185 16.9509C23.2414 16.9462 23.2653 16.9423 23.2893 16.9395C23.3324 16.9318 23.3755 16.9261 23.4186 16.9203C23.43 16.9184 23.4406 16.9165 23.4521 16.9155C23.4884 16.9098 23.5257 16.905 23.5631 16.9002C23.6033 16.8954 23.6435 16.8906 23.6837 16.8868L23.7411 16.8811C23.7822 16.8763 23.8243 16.8725 23.8655 16.8696C23.8874 16.8677 23.9095 16.8658 23.9314 16.8648C23.9592 16.8619 23.988 16.86 24.0157 16.8591C24.0569 16.8562 24.0989 16.8543 24.1402 16.8524C24.1937 16.8495 24.2473 16.8476 24.3019 16.8466C24.367 16.8447 24.4339 16.8438 24.5 16.8438C28.7282 16.8438 32.1562 20.2718 32.1562 24.5C32.1562 25.8217 31.8213 27.0648 31.2318 28.1492C31.1734 28.2563 31.113 28.3626 31.0499 28.4659C31.0173 28.5205 30.9839 28.5731 30.9493 28.6267C30.8882 28.7224 30.825 28.8162 30.7599 28.909C30.7532 28.9186 30.7464 28.9272 30.7398 28.9368C30.6001 29.1339 30.4508 29.3244 30.2919 29.5062C30.1722 29.645 30.047 29.7799 29.9167 29.9101C29.7991 30.0278 29.6774 30.1427 29.5522 30.2518C29.0268 30.714 28.4382 31.1054 27.7998 31.4098C27.6946 31.4605 27.5882 31.5083 27.4801 31.5543C27.2515 31.6509 27.016 31.7371 26.7768 31.8117C26.5366 31.8864 26.2925 31.9495 26.0427 32.0003C25.5441 32.1027 25.0282 32.1562 24.5 32.1562C20.2718 32.1562 16.8438 28.7282 16.8438 24.5C16.8438 24.434 16.8447 24.3679 16.8466 24.3029C16.8476 24.2493 16.8494 24.1966 16.8524 24.143C16.8543 24.0933 16.8571 24.0435 16.86 23.9947C16.861 23.9803 16.8619 23.966 16.8629 23.9516C16.8667 23.9057 16.8695 23.8597 16.8744 23.8138C16.8753 23.8023 16.8763 23.7918 16.8772 23.7803C16.882 23.7258 16.8878 23.6712 16.8945 23.6176V23.6157C16.9011 23.5583 16.9079 23.5009 16.9165 23.4434C16.9222 23.4004 16.928 23.3573 16.9356 23.3142C16.9433 23.2568 16.9528 23.2013 16.9634 23.1448C16.9652 23.1295 16.9682 23.1152 16.971 23.0999" stroke="url(#paint2_linear_71_295)" stroke-width="2" stroke-linecap="round" stroke-linejoin="round"/>
<path d="M24.5 27.3706C22.9171 27.3706 21.6289 26.0824 21.6289 24.4995C21.6289 22.9166 22.9171 21.6284 24.5 21.6284C26.0829 21.6284 27.3711 22.9166 27.3711 24.4995C27.3711 26.0824 26.0829 27.3706 24.5 27.3706Z" stroke="url(#paint3_linear_71_295)" stroke-width="2" stroke-linecap="round" stroke-linejoin="round"/>
</g>
<defs>
<linearGradient id="paint0_linear_71_295" x1="18.7578" y1="20.6719" x2="18.7578" y2="18.7578" gradientUnits="userSpaceOnUse">
<stop stop-color="#36A1BC"/>
<stop offset="1" stop-color="#0B4F6A"/>
</linearGradient>
<linearGradient id="paint1_linear_71_295" x1="24.5" y1="36.9414" x2="24.5" y2="12.0586" gradientUnits="userSpaceOnUse">
<stop stop-color="#36A1BC"/>
<stop offset="1" stop-color="#0B4F6A"/>
</linearGradient>
<linearGradient id="paint2_linear_71_295" x1="24.5" y1="32.1562" x2="24.5" y2="16.8438" gradientUnits="userSpaceOnUse">
<stop stop-color="#36A1BC"/>
<stop offset="1" stop-color="#0B4F6A"/>
</linearGradient>
<linearGradient id="paint3_linear_71_295" x1="24.5" y1="27.3706" x2="24.5" y2="21.6284" gradientUnits="userSpaceOnUse">
<stop stop-color="#36A1BC"/>
<stop offset="1" stop-color="#0B4F6A"/>
</linearGradient>
</defs>
</svg>
