<svg width="38" height="28" viewBox="0 0 38 28" fill="none" xmlns="http://www.w3.org/2000/svg">
<path d="M20.9567 19H8.45669C8.3473 18.9993 8.24 18.97 8.14551 18.9149C8.05102 18.8597 7.97265 18.7808 7.91824 18.6859C7.86383 18.591 7.83528 18.4835 7.83545 18.3741C7.83562 18.2647 7.86449 18.1572 7.91919 18.0625C8.43403 17.1719 9.08169 14.9227 9.08169 12.125C9.08169 10.6332 9.67432 9.20242 10.7292 8.14752C11.7841 7.09263 13.2148 6.5 14.7067 6.5C16.1985 6.5 17.6293 7.09263 18.6842 8.14752C19.7391 9.20242 20.3317 10.6332 20.3317 12.125C20.3317 14.9234 20.9801 17.1719 21.4958 18.0625C21.5505 18.1574 21.5794 18.2649 21.5795 18.3745C21.5796 18.484 21.5509 18.5916 21.4963 18.6865C21.4417 18.7815 21.3631 18.8604 21.2684 18.9154C21.1737 18.9705 21.0662 18.9996 20.9567 19Z" fill="#25A0D5"/>
<path d="M22.0347 17.7453C21.6011 16.9984 20.9566 14.8852 20.9566 12.125C20.9566 10.4674 20.2981 8.87769 19.126 7.70558C17.9539 6.53348 16.3642 5.875 14.7066 5.875C13.049 5.875 11.4593 6.53348 10.2872 7.70558C9.11509 8.87769 8.45661 10.4674 8.45661 12.125C8.45661 14.8859 7.8113 16.9984 7.37771 17.7453C7.26698 17.9352 7.20828 18.1509 7.20753 18.3707C7.20677 18.5905 7.26399 18.8066 7.37341 18.9973C7.48283 19.1879 7.64058 19.3463 7.83076 19.4565C8.02094 19.5667 8.23681 19.6248 8.45661 19.625H11.6449C11.7891 20.3306 12.1726 20.9647 12.7305 21.4201C13.2884 21.8756 13.9864 22.1243 14.7066 22.1243C15.4268 22.1243 16.1249 21.8756 16.6828 21.4201C17.2407 20.9647 17.6241 20.3306 17.7683 19.625H20.9566C21.1764 19.6247 21.3921 19.5665 21.5822 19.4562C21.7723 19.346 21.9299 19.1875 22.0392 18.9969C22.1486 18.8063 22.2057 18.5903 22.2049 18.3705C22.2041 18.1508 22.1454 17.9351 22.0347 17.7453ZM14.7066 20.875C14.319 20.8749 13.9409 20.7546 13.6244 20.5308C13.308 20.3069 13.0686 19.9905 12.9394 19.625H16.4738C16.3446 19.9905 16.1053 20.3069 15.7888 20.5308C15.4723 20.7546 15.0943 20.8749 14.7066 20.875ZM8.45661 18.375C9.05818 17.3406 9.70661 14.9438 9.70661 12.125C9.70661 10.7989 10.2334 9.52715 11.1711 8.58947C12.1088 7.65178 13.3805 7.125 14.7066 7.125C16.0327 7.125 17.3045 7.65178 18.2421 8.58947C19.1798 9.52715 19.7066 10.7989 19.7066 12.125C19.7066 14.9414 20.3535 17.3383 20.9566 18.375H8.45661Z" fill="#1F213D"/>
<rect x="14.7065" width="23" height="13" rx="6.5" fill="#E80F0F"/>
<path d="M22.9686 4.3L21.6386 5.53L20.9386 4.7L23.0786 2.92H24.1686V10H22.9686V4.3ZM31.2565 4H28.4065L28.3765 5.41C28.4699 5.37667 28.5865 5.35333 28.7265 5.34C28.8732 5.32667 29.0099 5.32 29.1365 5.32C29.4832 5.32 29.7999 5.37667 30.0865 5.49C30.3799 5.59667 30.6299 5.75333 30.8365 5.96C31.0432 6.16667 31.2032 6.41333 31.3165 6.7C31.4365 6.98667 31.4965 7.31 31.4965 7.67C31.4965 8.05 31.4299 8.39333 31.2965 8.7C31.1699 9 30.9899 9.25667 30.7565 9.47C30.5299 9.67667 30.2599 9.83667 29.9465 9.95C29.6332 10.0633 29.2965 10.12 28.9365 10.12C28.3699 10.12 27.8865 9.98667 27.4865 9.72C27.0932 9.45333 26.8132 9.04667 26.6465 8.5L27.9065 8.16C27.9865 8.41333 28.1232 8.61333 28.3165 8.76C28.5099 8.90667 28.7599 8.98 29.0665 8.98C29.2465 8.98 29.4099 8.95 29.5565 8.89C29.7099 8.83 29.8399 8.74667 29.9465 8.64C30.0599 8.52667 30.1465 8.39667 30.2065 8.25C30.2665 8.10333 30.2965 7.94333 30.2965 7.77C30.2965 7.52333 30.2499 7.31333 30.1565 7.14C30.0699 6.96667 29.9499 6.82667 29.7965 6.72C29.6432 6.60667 29.4665 6.52667 29.2665 6.48C29.0665 6.42667 28.8565 6.4 28.6365 6.4C28.3765 6.4 28.1165 6.43 27.8565 6.49C27.6032 6.55 27.3699 6.63333 27.1565 6.74L27.2265 2.92H31.2565V4Z" fill="white"/>
</svg>
