<svg width="823" height="1394" viewBox="0 0 823 1394" fill="none" xmlns="http://www.w3.org/2000/svg">
<g opacity="0.2">
<path d="M581.907 30.0088V271.908C581.907 280.835 574.511 288.139 565.47 288.139H321.711C312.67 288.139 305.274 295.443 305.274 304.37V751.012C305.274 759.939 297.877 767.243 288.837 767.243H35.7017" stroke="#96A0AA" stroke-width="6" stroke-linecap="round" stroke-linejoin="round"/>
<path d="M310.758 578.639C313.631 575.802 313.631 571.202 310.758 568.365C307.885 565.527 303.226 565.527 300.353 568.365C297.48 571.202 297.48 575.802 300.353 578.639C303.226 581.476 307.885 581.476 310.758 578.639Z" fill="#96A0AA"/>
<path d="M649.97 1390.6V1242.2C649.97 1233.28 642.573 1225.97 633.533 1225.97H438.742C429.702 1225.97 422.305 1218.67 422.305 1209.74V784.5C422.305 775.573 429.702 768.269 438.742 768.269H630.443C639.483 768.269 646.88 760.964 646.88 752.037V455.581C646.88 446.654 639.483 439.35 630.443 439.35H450.866C441.826 439.35 434.429 432.046 434.429 423.119V0" stroke="#25A0D5" stroke-width="4.5" stroke-miterlimit="10"/>
<path d="M550.592 1390.6V1116.24C550.592 1107.31 543.196 1100 534.155 1100H245.931C236.89 1100 229.494 1092.7 229.494 1083.77V251.391C229.494 242.464 236.89 235.16 245.931 235.16H272.269C281.309 235.16 288.706 227.856 288.706 218.928V0" stroke="#646C80" stroke-width="4.5" stroke-miterlimit="10"/>
<path d="M239.02 1394V1190.98C239.02 1182.06 231.624 1174.75 222.583 1174.75H123.475C114.435 1174.75 107.038 1167.45 107.038 1158.52V1007.05C107.038 998.124 114.435 990.82 123.475 990.82H340.818C349.858 990.82 357.255 983.516 357.255 974.589V691.514C357.255 682.587 349.858 675.283 340.818 675.283H159.939C150.899 675.283 143.502 667.979 143.502 659.051V444.064C143.502 435.137 136.106 427.833 127.065 427.833H23.1904" stroke="#25A0D5" stroke-width="4.5" stroke-miterlimit="10"/>
<path d="M701.108 1382.27V978.192C701.108 969.264 693.712 961.96 684.671 961.96H498.974C489.933 961.96 482.537 954.656 482.537 945.729V547.619C482.537 538.692 489.933 531.388 498.974 531.388H578.647C587.687 531.388 595.084 524.084 595.084 515.157V388.02C595.084 379.093 587.687 371.788 578.647 371.788H512.623C503.582 371.788 496.186 364.484 496.186 355.557V24.1519" stroke="#96A0AA" stroke-width="6" stroke-linecap="round" stroke-linejoin="round"/>
<path d="M422.305 1007.82C429.211 1007.82 434.81 1002.29 434.81 995.468C434.81 988.648 429.211 983.12 422.305 983.12C415.399 983.12 409.8 988.648 409.8 995.468C409.8 1002.29 415.399 1007.82 422.305 1007.82Z" fill="#25A0D5"/>
<path d="M654.736 667.103C659.075 662.818 659.075 655.871 654.736 651.586C650.397 647.301 643.361 647.301 639.022 651.586C634.683 655.871 634.683 662.818 639.022 667.103C643.361 671.388 650.397 671.388 654.736 667.103Z" fill="#25A0D5"/>
<path d="M526.039 770.384C527.326 764.959 523.916 759.53 518.422 758.259C512.928 756.987 507.431 760.355 506.143 765.78C504.856 771.205 508.266 776.634 513.76 777.905C519.254 779.177 524.751 775.809 526.039 770.384Z" fill="#25A0D5"/>
<path d="M434.81 237.757C439.734 237.757 443.726 233.815 443.726 228.953C443.726 224.091 439.734 220.149 434.81 220.149C429.887 220.149 425.895 224.091 425.895 228.953C425.895 233.815 429.887 237.757 434.81 237.757Z" fill="#25A0D5"/>
<path d="M536.135 448.7C541.058 448.7 545.05 444.758 545.05 439.896C545.05 435.033 541.058 431.092 536.135 431.092C531.211 431.092 527.219 435.033 527.219 439.896C527.219 444.758 531.211 448.7 536.135 448.7Z" fill="#25A0D5"/>
<path d="M550.592 1162.96C555.476 1162.96 559.435 1159.05 559.435 1154.22C559.435 1149.4 555.476 1145.49 550.592 1145.49C545.708 1145.49 541.749 1149.4 541.749 1154.22C541.749 1159.05 545.708 1162.96 550.592 1162.96Z" fill="#646C80"/>
<path d="M357.255 903.125C362.799 903.125 367.294 898.686 367.294 893.211C367.294 887.736 362.799 883.297 357.255 883.297C351.71 883.297 347.215 887.736 347.215 893.211C347.215 898.686 351.71 903.125 357.255 903.125Z" fill="#25A0D5"/>
<path d="M506.099 1227.7C506.903 1222.28 503.108 1217.25 497.622 1216.45C492.136 1215.66 487.036 1219.41 486.232 1224.83C485.428 1230.24 489.223 1235.28 494.709 1236.07C500.196 1236.87 505.295 1233.12 506.099 1227.7Z" fill="#25A0D5"/>
<path d="M242.78 1264.48C247.935 1262.47 250.46 1256.71 248.419 1251.62C246.378 1246.53 240.544 1244.03 235.388 1246.05C230.233 1248.06 227.708 1253.83 229.75 1258.92C231.791 1264.01 237.625 1266.5 242.78 1264.48Z" fill="#25A0D5"/>
<path d="M544.39 536.283C546.984 533.722 546.984 529.57 544.39 527.009C541.797 524.448 537.593 524.448 534.999 527.009C532.406 529.57 532.406 533.722 534.999 536.283C537.593 538.844 541.797 538.844 544.39 536.283Z" fill="#96A0AA"/>
<path d="M700.839 1148.78C706.224 1148.78 710.59 1144.47 710.59 1139.15C710.59 1133.83 706.224 1129.52 700.839 1129.52C695.454 1129.52 691.089 1133.83 691.089 1139.15C691.089 1144.47 695.454 1148.78 700.839 1148.78Z" fill="#96A0AA"/>
<path d="M549.113 379.353C553.292 379.353 556.681 376.007 556.681 371.88C556.681 367.752 553.292 364.407 549.113 364.407C544.934 364.407 541.545 367.752 541.545 371.88C541.545 376.007 544.934 379.353 549.113 379.353Z" fill="#96A0AA"/>
<path d="M369.76 298.871C375.573 298.871 380.286 294.217 380.286 288.477C380.286 282.736 375.573 278.082 369.76 278.082C363.946 278.082 359.233 282.736 359.233 288.477C359.233 294.217 363.946 298.871 369.76 298.871Z" fill="#96A0AA"/>
<path d="M589.853 183.833C590.884 179.494 588.158 175.15 583.764 174.132C579.37 173.113 574.972 175.805 573.94 180.144C572.909 184.483 575.635 188.827 580.029 189.845C584.423 190.864 588.821 188.172 589.853 183.833Z" fill="#96A0AA"/>
<path d="M229.546 469.852C234.775 469.852 239.013 465.666 239.013 460.503C239.013 455.34 234.775 451.154 229.546 451.154C224.317 451.154 220.078 455.34 220.078 460.503C220.078 465.666 224.317 469.852 229.546 469.852Z" fill="#646C80"/>
<path d="M143.509 590.523C148.149 590.523 151.911 586.808 151.911 582.225C151.911 577.643 148.149 573.928 143.509 573.928C138.868 573.928 135.106 577.643 135.106 582.225C135.106 586.808 138.868 590.523 143.509 590.523Z" fill="#25A0D5"/>
<path d="M229.546 1042.7C234.775 1042.7 239.013 1038.51 239.013 1033.35C239.013 1028.18 234.775 1024 229.546 1024C224.317 1024 220.078 1028.18 220.078 1033.35C220.078 1038.51 224.317 1042.7 229.546 1042.7Z" fill="#646C80"/>
<path d="M811.328 1394V1049.58C811.328 1040.65 803.931 1033.35 794.891 1033.35H591.007C581.967 1033.35 574.57 1026.04 574.57 1017.11V653.402C574.57 644.475 567.174 637.171 558.133 637.171H417.052C408.011 637.171 400.615 629.867 400.615 620.94V409.004C400.615 400.076 393.218 392.772 384.178 392.772H200.591C191.55 392.772 184.154 385.468 184.154 376.541V190.153C184.154 181.226 176.757 173.922 167.717 173.922H118.156C109.116 173.922 101.719 166.618 101.719 157.69V18.2891" stroke="#646C76" stroke-width="4.5" stroke-miterlimit="10"/>
<path d="M764.575 1045.69C771.481 1045.69 777.08 1040.16 777.08 1033.34C777.08 1026.52 771.481 1021 764.575 1021C757.668 1021 752.069 1026.52 752.069 1033.34C752.069 1040.16 757.668 1045.69 764.575 1045.69Z" fill="#646C76"/>
<path d="M820.766 1294.6C822 1289.44 818.763 1284.27 813.536 1283.05C808.309 1281.83 803.072 1285.03 801.838 1290.19C800.605 1295.35 803.842 1300.52 809.069 1301.74C814.295 1302.96 819.533 1299.76 820.766 1294.6Z" fill="#646C76"/>
<path d="M579.751 863.714C582.614 860.886 582.614 856.303 579.751 853.476C576.888 850.649 572.246 850.649 569.383 853.476C566.521 856.303 566.521 860.887 569.383 863.714C572.246 866.541 576.888 866.541 579.751 863.714Z" fill="#646C76"/>
<path d="M487.716 706.096C490.579 703.269 490.579 698.685 487.716 695.858C484.853 693.031 480.211 693.031 477.348 695.858C474.485 698.685 474.485 703.269 477.348 706.096C480.211 708.923 484.853 708.923 487.716 706.096Z" fill="#96A0AA"/>
<path d="M184.154 297.209C189.038 297.209 192.997 293.299 192.997 288.476C192.997 283.653 189.038 279.744 184.154 279.744C179.27 279.744 175.311 283.653 175.311 288.476C175.311 293.299 179.27 297.209 184.154 297.209Z" fill="#646C76"/>
<path d="M101.719 125.76C104.657 125.76 107.038 123.409 107.038 120.508C107.038 117.607 104.657 115.255 101.719 115.255C98.7818 115.255 96.4004 117.607 96.4004 120.508C96.4004 123.409 98.7818 125.76 101.719 125.76Z" fill="#646C76"/>
<path d="M401.207 497.419C407.02 497.419 411.733 492.765 411.733 487.024C411.733 481.284 407.02 476.63 401.207 476.63C395.393 476.63 390.681 481.284 390.681 487.024C390.681 492.765 395.393 497.419 401.207 497.419Z" fill="#646C76"/>
<path d="M190.249 777.644C196.062 777.644 200.775 772.99 200.775 767.249C200.775 761.508 196.062 756.854 190.249 756.854C184.435 756.854 179.723 761.508 179.723 767.249C179.723 772.99 184.435 777.644 190.249 777.644Z" fill="#96A0AA"/>
<path d="M288.916 173.922C294.73 173.922 299.443 169.269 299.443 163.528C299.443 157.787 294.73 153.133 288.916 153.133C283.103 153.133 278.39 157.787 278.39 163.528C278.39 169.269 283.103 173.922 288.916 173.922Z" fill="#646C80"/>
<path d="M26.6488 875.649H296.484C305.524 875.649 312.921 882.953 312.921 891.88V1285.82C312.921 1294.75 305.524 1302.05 296.484 1302.05H2" stroke="#646C76" stroke-width="6" stroke-linecap="round" stroke-linejoin="round"/>
<path d="M153.358 886.044C159.171 886.044 163.884 881.39 163.884 875.649C163.884 869.908 159.171 865.254 153.358 865.254C147.544 865.254 142.832 869.908 142.832 875.649C142.832 881.39 147.544 886.044 153.358 886.044Z" fill="#646C76"/>
<path d="M321.522 1165.05C322.638 1160.36 319.688 1155.66 314.933 1154.55C310.179 1153.45 305.42 1156.36 304.304 1161.06C303.187 1165.75 306.137 1170.45 310.892 1171.56C315.646 1172.66 320.406 1169.75 321.522 1165.05Z" fill="#646C76"/>
</g>
</svg>
