<svg width="829" height="1265" viewBox="0 0 829 1265" fill="none" xmlns="http://www.w3.org/2000/svg">
<g opacity="0.2">
<path d="M593.931 27.2314V246.745C593.931 254.846 586.075 261.475 576.473 261.475H317.571C307.969 261.475 300.113 268.103 300.113 276.204V681.513C300.113 689.614 292.257 696.242 282.655 696.242H13.7954" stroke="#96A0AA" stroke-width="6" stroke-linecap="round" stroke-linejoin="round"/>
<path d="M305.938 525.093C308.989 522.518 308.989 518.343 305.938 515.769C302.886 513.194 297.938 513.194 294.887 515.769C291.835 518.343 291.835 522.518 294.887 525.093C297.938 527.667 302.886 527.667 305.938 525.093Z" fill="#96A0AA"/>
<path d="M666.221 1261.92V1127.25C666.221 1119.15 658.365 1112.52 648.764 1112.52H441.873C432.271 1112.52 424.415 1105.89 424.415 1097.79V711.903C424.415 703.802 432.271 697.173 441.873 697.173H645.481C655.083 697.173 662.939 690.545 662.939 682.444V413.422C662.939 405.321 655.083 398.693 645.481 398.693H454.75C445.148 398.693 437.292 392.065 437.292 383.964V0" stroke="#25A0D5" stroke-width="4.5" stroke-miterlimit="10"/>
<path d="M560.671 1261.92V1012.94C560.671 1004.84 552.814 998.211 543.213 998.211H237.083C227.482 998.211 219.625 991.583 219.625 983.482V228.128C219.625 220.026 227.482 213.398 237.083 213.398H265.058C274.66 213.398 282.516 206.77 282.516 198.669V0" stroke="#646C80" stroke-width="4.5" stroke-miterlimit="10"/>
<path d="M229.744 1265V1080.77C229.744 1072.67 221.888 1066.04 212.286 1066.04H107.021C97.4196 1066.04 89.5635 1059.41 89.5635 1051.31V913.859C89.5635 905.758 97.4196 899.13 107.021 899.13H337.865C347.467 899.13 355.323 892.502 355.323 884.401V627.522C355.323 619.421 347.467 612.792 337.865 612.792H145.75C136.148 612.792 128.292 606.164 128.292 598.063V402.971C128.292 394.869 120.436 388.241 110.834 388.241H0.506836" stroke="#25A0D5" stroke-width="4.5" stroke-miterlimit="10"/>
<path d="M720.536 1254.36V887.67C720.536 879.569 712.68 872.941 703.078 872.941H505.845C496.243 872.941 488.387 866.313 488.387 858.212V496.943C488.387 488.842 496.243 482.214 505.845 482.214H590.467C600.069 482.214 607.925 475.586 607.925 467.484V352.113C607.925 344.012 600.069 337.383 590.467 337.383H520.342C510.74 337.383 502.884 330.755 502.884 322.654V21.917" stroke="#96A0AA" stroke-width="6" stroke-linecap="round" stroke-linejoin="round"/>
<path d="M424.414 914.555C431.749 914.555 437.696 909.538 437.696 903.349C437.696 897.16 431.749 892.143 424.414 892.143C417.078 892.143 411.132 897.16 411.132 903.349C411.132 909.538 417.078 914.555 424.414 914.555Z" fill="#25A0D5"/>
<path d="M671.283 605.37C675.892 601.481 675.892 595.177 671.283 591.288C666.675 587.4 659.202 587.4 654.594 591.288C649.985 595.177 649.985 601.481 654.594 605.37C659.202 609.258 666.675 609.258 671.283 605.37Z" fill="#25A0D5"/>
<path d="M534.592 699.093C535.959 694.17 532.338 689.244 526.502 688.09C520.667 686.936 514.828 689.992 513.461 694.915C512.093 699.838 515.715 704.764 521.55 705.918C527.385 707.072 533.224 704.016 534.592 699.093Z" fill="#25A0D5"/>
<path d="M437.696 215.755C442.926 215.755 447.165 212.178 447.165 207.766C447.165 203.353 442.926 199.776 437.696 199.776C432.467 199.776 428.227 203.353 428.227 207.766C428.227 212.178 432.467 215.755 437.696 215.755Z" fill="#25A0D5"/>
<path d="M545.315 407.177C550.545 407.177 554.784 403.6 554.784 399.187C554.784 394.775 550.545 391.198 545.315 391.198C540.085 391.198 535.846 394.775 535.846 399.187C535.846 403.6 540.085 407.177 545.315 407.177Z" fill="#25A0D5"/>
<path d="M560.67 1055.34C565.858 1055.34 570.063 1051.79 570.063 1047.41C570.063 1043.04 565.858 1039.49 560.67 1039.49C555.483 1039.49 551.278 1043.04 551.278 1047.41C551.278 1051.79 555.483 1055.34 560.67 1055.34Z" fill="#646C80"/>
<path d="M355.323 819.55C361.212 819.55 365.986 815.522 365.986 810.553C365.986 805.585 361.212 801.557 355.323 801.557C349.433 801.557 344.659 805.585 344.659 810.553C344.659 815.522 349.433 819.55 355.323 819.55Z" fill="#25A0D5"/>
<path d="M513.413 1114.09C514.268 1109.17 510.236 1104.61 504.41 1103.88C498.583 1103.16 493.167 1106.57 492.312 1111.48C491.458 1116.4 495.489 1120.97 501.316 1121.69C507.143 1122.41 512.559 1119.01 513.413 1114.09Z" fill="#25A0D5"/>
<path d="M233.737 1147.47C239.213 1145.64 241.894 1140.41 239.726 1135.79C237.558 1131.17 231.362 1128.91 225.886 1130.74C220.411 1132.57 217.729 1137.8 219.897 1142.42C222.065 1147.04 228.261 1149.3 233.737 1147.47Z" fill="#25A0D5"/>
<path d="M554.083 486.655C556.838 484.331 556.838 480.563 554.083 478.24C551.329 475.916 546.863 475.916 544.109 478.24C541.354 480.563 541.354 484.331 544.109 486.655C546.863 488.979 551.329 488.979 554.083 486.655Z" fill="#96A0AA"/>
<path d="M720.251 1042.47C725.97 1042.47 730.607 1038.56 730.607 1033.73C730.607 1028.91 725.97 1024.99 720.251 1024.99C714.531 1024.99 709.895 1028.91 709.895 1033.73C709.895 1038.56 714.531 1042.47 720.251 1042.47Z" fill="#96A0AA"/>
<path d="M559.099 344.247C563.538 344.247 567.137 341.211 567.137 337.466C567.137 333.721 563.538 330.685 559.099 330.685C554.66 330.685 551.062 333.721 551.062 337.466C551.062 341.211 554.66 344.247 559.099 344.247Z" fill="#96A0AA"/>
<path d="M368.605 271.214C374.779 271.214 379.785 266.991 379.785 261.781C379.785 256.572 374.779 252.349 368.605 252.349C362.43 252.349 357.425 256.572 357.425 261.781C357.425 266.991 362.43 271.214 368.605 271.214Z" fill="#96A0AA"/>
<path d="M602.37 166.821C603.465 162.883 600.57 158.942 595.903 158.018C591.236 157.094 586.564 159.536 585.469 163.474C584.373 167.411 587.269 171.353 591.936 172.277C596.603 173.201 601.274 170.759 602.37 166.821Z" fill="#96A0AA"/>
<path d="M219.681 426.372C225.234 426.372 229.737 422.574 229.737 417.888C229.737 413.203 225.234 409.404 219.681 409.404C214.127 409.404 209.625 413.203 209.625 417.888C209.625 422.574 214.127 426.372 219.681 426.372Z" fill="#646C80"/>
<path d="M128.299 535.876C133.228 535.876 137.224 532.505 137.224 528.346C137.224 524.188 133.228 520.816 128.299 520.816C123.37 520.816 119.375 524.188 119.375 528.346C119.375 532.505 123.37 535.876 128.299 535.876Z" fill="#25A0D5"/>
<path d="M219.681 946.205C225.234 946.205 229.737 942.406 229.737 937.72C229.737 933.035 225.234 929.236 219.681 929.236C214.127 929.236 209.625 933.035 209.625 937.72C209.625 942.406 214.127 946.205 219.681 946.205Z" fill="#646C80"/>
<path d="M837.602 1265V952.45C837.602 944.349 829.746 937.72 820.144 937.72H603.596C593.994 937.72 586.138 931.092 586.138 922.991V592.937C586.138 584.836 578.282 578.208 568.68 578.208H418.834C409.233 578.208 401.376 571.579 401.376 563.478V371.155C401.376 363.054 393.52 356.425 383.918 356.425H188.927C179.325 356.425 171.469 349.797 171.469 341.696V172.556C171.469 164.455 163.613 157.827 154.011 157.827H101.372C91.7697 157.827 83.9136 151.199 83.9136 143.098V16.5967" stroke="#646C76" stroke-width="4.5" stroke-miterlimit="10"/>
<path d="M787.945 948.927C795.281 948.927 801.227 943.91 801.227 937.721C801.227 931.532 795.281 926.515 787.945 926.515C780.61 926.515 774.663 931.532 774.663 937.721C774.663 943.91 780.61 948.927 787.945 948.927Z" fill="#646C76"/>
<path d="M847.627 1174.8C848.938 1170.11 845.5 1165.42 839.948 1164.32C834.397 1163.21 828.834 1166.11 827.524 1170.79C826.213 1175.48 829.652 1180.17 835.203 1181.28C840.755 1182.38 846.317 1179.48 847.627 1174.8Z" fill="#646C76"/>
<path d="M591.64 783.786C594.681 781.22 594.681 777.061 591.64 774.495C588.599 771.93 583.669 771.93 580.629 774.495C577.588 777.061 577.588 781.22 580.629 783.786C583.669 786.351 588.599 786.351 591.64 783.786Z" fill="#646C76"/>
<path d="M493.888 640.755C496.929 638.189 496.929 634.03 493.888 631.464C490.847 628.899 485.918 628.899 482.877 631.464C479.836 634.03 479.836 638.189 482.877 640.755C485.918 643.32 490.847 643.32 493.888 640.755Z" fill="#96A0AA"/>
<path d="M171.47 269.705C176.657 269.705 180.862 266.157 180.862 261.781C180.862 257.404 176.657 253.856 171.47 253.856C166.282 253.856 162.077 257.404 162.077 261.781C162.077 266.157 166.282 269.705 171.47 269.705Z" fill="#646C76"/>
<path d="M83.914 114.123C87.0341 114.123 89.5635 111.989 89.5635 109.356C89.5635 106.724 87.0341 104.59 83.914 104.59C80.794 104.59 78.2646 106.724 78.2646 109.356C78.2646 111.989 80.794 114.123 83.914 114.123Z" fill="#646C76"/>
<path d="M402.005 451.389C408.18 451.389 413.185 447.166 413.185 441.956C413.185 436.747 408.18 432.523 402.005 432.523C395.831 432.523 390.825 436.747 390.825 441.956C390.825 447.166 395.831 451.389 402.005 451.389Z" fill="#646C76"/>
<path d="M177.943 705.681C184.117 705.681 189.123 701.458 189.123 696.248C189.123 691.039 184.117 686.815 177.943 686.815C171.768 686.815 166.763 691.039 166.763 696.248C166.763 701.458 171.768 705.681 177.943 705.681Z" fill="#96A0AA"/>
<path d="M282.74 157.828C288.914 157.828 293.92 153.605 293.92 148.395C293.92 143.186 288.914 138.962 282.74 138.962C276.565 138.962 271.56 143.186 271.56 148.395C271.56 153.605 276.565 157.828 282.74 157.828Z" fill="#646C80"/>
<path d="M4.18018 794.617H290.777C300.379 794.617 308.235 801.245 308.235 809.346V1166.83C308.235 1174.93 300.379 1181.56 290.777 1181.56L171 1181.56" stroke="#646C76" stroke-width="6" stroke-linecap="round" stroke-linejoin="round"/>
<path d="M138.76 804.049C144.935 804.049 149.94 799.826 149.94 794.616C149.94 789.407 144.935 785.184 138.76 785.184C132.586 785.184 127.58 789.407 127.58 794.616C127.58 799.826 132.586 804.049 138.76 804.049Z" fill="#646C76"/>
<path d="M317.37 1057.24C318.556 1052.98 315.423 1048.71 310.373 1047.71C305.323 1046.71 300.268 1049.35 299.082 1053.62C297.897 1057.88 301.03 1062.14 306.08 1063.14C311.13 1064.14 316.185 1061.5 317.37 1057.24Z" fill="#646C76"/>
</g>
</svg>
