<svg width="495" height="1041" viewBox="0 0 495 1041" fill="none" xmlns="http://www.w3.org/2000/svg">
<g opacity="0.2">
<path d="M488.343 22.4097V203.053C488.343 209.72 481.878 215.174 473.977 215.174H260.92C253.019 215.174 246.554 220.629 246.554 227.295V560.834C246.554 567.501 240.089 572.955 232.187 572.955H10.9355" stroke="#96A0AA" stroke-width="6" stroke-linecap="round" stroke-linejoin="round"/>
<path d="M251.347 432.112C253.858 429.993 253.858 426.558 251.347 424.439C248.835 422.32 244.764 422.32 242.253 424.439C239.741 426.558 239.741 429.993 242.253 432.112C244.764 434.23 248.835 434.23 251.347 432.112Z" fill="#96A0AA"/>
<path d="M547.833 1038.46V927.643C547.833 920.977 541.368 915.522 533.467 915.522H363.211C355.309 915.522 348.844 910.068 348.844 903.401V585.842C348.844 579.176 355.309 573.721 363.211 573.721H530.766C538.667 573.721 545.132 568.267 545.132 561.6V340.215C545.132 333.549 538.667 328.094 530.766 328.094H373.808C365.906 328.094 359.441 322.64 359.441 315.973V0" stroke="#25A0D5" stroke-width="4.5" stroke-miterlimit="10"/>
<path d="M460.973 1038.46V833.574C460.973 826.907 454.508 821.453 446.606 821.453H194.685C186.783 821.453 180.318 815.998 180.318 809.331V187.732C180.318 181.065 186.783 175.611 194.685 175.611H217.706C225.608 175.611 232.073 170.156 232.073 163.49V0" stroke="#646C80" stroke-width="4.5" stroke-miterlimit="10"/>
<path d="M188.645 1041V889.394C188.645 882.727 182.18 877.273 174.278 877.273H87.6535C79.7519 877.273 73.2869 871.818 73.2869 865.152V752.037C73.2869 745.371 79.7519 739.916 87.6535 739.916H277.62C285.522 739.916 291.987 734.462 291.987 727.795V516.403C291.987 509.736 285.522 504.282 277.62 504.282H119.524C111.623 504.282 105.158 498.827 105.158 492.161V331.614C105.158 324.948 98.6928 319.493 90.7912 319.493H0" stroke="#25A0D5" stroke-width="4.5" stroke-miterlimit="10"/>
<path d="M592.53 1032.24V730.486C592.53 723.819 586.065 718.365 578.163 718.365H415.855C407.954 718.365 401.489 712.91 401.489 706.244V408.947C401.489 402.28 407.954 396.826 415.855 396.826H485.493C493.395 396.826 499.86 391.371 499.86 384.705V289.762C499.86 283.096 493.395 277.641 485.493 277.641H427.785C419.884 277.641 413.419 272.187 413.419 265.52V18.0361" stroke="#96A0AA" stroke-width="6" stroke-linecap="round" stroke-linejoin="round"/>
<path d="M348.844 752.61C354.88 752.61 359.774 748.481 359.774 743.388C359.774 738.295 354.88 734.166 348.844 734.166C342.807 734.166 337.914 738.295 337.914 743.388C337.914 748.481 342.807 752.61 348.844 752.61Z" fill="#25A0D5"/>
<path d="M439.512 575.301C440.637 571.25 437.656 567.196 432.855 566.246C428.053 565.297 423.248 567.811 422.122 571.863C420.997 575.914 423.977 579.968 428.779 580.917C433.581 581.867 438.386 579.352 439.512 575.301Z" fill="#25A0D5"/>
<path d="M359.774 177.55C364.078 177.55 367.566 174.606 367.566 170.975C367.566 167.344 364.078 164.401 359.774 164.401C355.47 164.401 351.981 167.344 351.981 170.975C351.981 174.606 355.47 177.55 359.774 177.55Z" fill="#25A0D5"/>
<path d="M448.336 335.076C452.64 335.076 456.128 332.132 456.128 328.501C456.128 324.87 452.64 321.927 448.336 321.927C444.032 321.927 440.543 324.87 440.543 328.501C440.543 332.132 444.032 335.076 448.336 335.076Z" fill="#25A0D5"/>
<path d="M460.972 868.463C465.241 868.463 468.702 865.544 468.702 861.942C468.702 858.341 465.241 855.421 460.972 855.421C456.704 855.421 453.243 858.341 453.243 861.942C453.243 865.544 456.704 868.463 460.972 868.463Z" fill="#646C80"/>
<path d="M291.987 674.428C296.833 674.428 300.762 671.114 300.762 667.025C300.762 662.936 296.833 659.621 291.987 659.621C287.14 659.621 283.211 662.936 283.211 667.025C283.211 671.114 287.14 674.428 291.987 674.428Z" fill="#25A0D5"/>
<path d="M422.084 916.813C422.787 912.767 419.469 909.007 414.674 908.414C409.879 907.82 405.422 910.619 404.719 914.665C404.016 918.711 407.334 922.471 412.129 923.064C416.924 923.657 421.381 920.858 422.084 916.813Z" fill="#25A0D5"/>
<path d="M191.931 944.282C196.437 942.777 198.644 938.475 196.86 934.673C195.076 930.871 189.976 929.01 185.47 930.515C180.964 932.02 178.758 936.322 180.542 940.124C182.326 943.926 187.425 945.787 191.931 944.282Z" fill="#25A0D5"/>
<path d="M455.552 400.48C457.818 398.568 457.818 395.467 455.552 393.555C453.285 391.643 449.61 391.643 447.343 393.555C445.077 395.467 445.077 398.568 447.343 400.48C449.61 402.393 453.285 402.393 455.552 400.48Z" fill="#96A0AA"/>
<path d="M459.679 283.29C463.332 283.29 466.294 280.791 466.294 277.709C466.294 274.627 463.332 272.128 459.679 272.128C456.026 272.128 453.065 274.627 453.065 277.709C453.065 280.791 456.026 283.29 459.679 283.29Z" fill="#96A0AA"/>
<path d="M302.917 223.189C307.998 223.189 312.118 219.713 312.118 215.426C312.118 211.139 307.998 207.664 302.917 207.664C297.836 207.664 293.717 211.139 293.717 215.426C293.717 219.713 297.836 223.189 302.917 223.189Z" fill="#96A0AA"/>
<path d="M495.288 137.281C496.19 134.041 493.807 130.798 489.966 130.037C486.126 129.276 482.281 131.287 481.38 134.527C480.478 137.767 482.861 141.011 486.702 141.771C490.542 142.532 494.387 140.522 495.288 137.281Z" fill="#96A0AA"/>
<path d="M180.364 350.873C184.934 350.873 188.639 347.747 188.639 343.891C188.639 340.035 184.934 336.909 180.364 336.909C175.793 336.909 172.088 340.035 172.088 343.891C172.088 347.747 175.793 350.873 180.364 350.873Z" fill="#646C80"/>
<path d="M105.164 440.985C109.22 440.985 112.508 438.211 112.508 434.789C112.508 431.367 109.22 428.593 105.164 428.593C101.107 428.593 97.8193 431.367 97.8193 434.789C97.8193 438.211 101.107 440.985 105.164 440.985Z" fill="#25A0D5"/>
<path d="M180.364 778.655C184.934 778.655 188.639 775.529 188.639 771.673C188.639 767.817 184.934 764.691 180.364 764.691C175.793 764.691 172.088 767.817 172.088 771.673C172.088 775.529 175.793 778.655 180.364 778.655Z" fill="#646C80"/>
<path d="M688.867 1041V783.794C688.867 777.128 682.402 771.673 674.5 771.673H496.297C488.395 771.673 481.93 766.219 481.93 759.552V487.942C481.93 481.276 475.465 475.821 467.564 475.821H344.252C336.351 475.821 329.886 470.367 329.886 463.7V305.432C329.886 298.766 323.421 293.311 315.519 293.311H155.056C147.154 293.311 140.689 287.857 140.689 281.19V142.001C140.689 135.334 134.224 129.88 126.322 129.88H83.0043C75.1027 129.88 68.6377 124.425 68.6377 117.759V13.6577" stroke="#646C76" stroke-width="4.5" stroke-miterlimit="10"/>
<path d="M486.458 644.996C488.96 642.885 488.96 639.462 486.458 637.351C483.956 635.24 479.899 635.24 477.397 637.351C474.894 639.462 474.894 642.885 477.397 644.996C479.899 647.108 483.956 647.108 486.458 644.996Z" fill="#646C76"/>
<path d="M406.016 527.293C408.518 525.182 408.518 521.759 406.016 519.648C403.513 517.536 399.456 517.536 396.954 519.648C394.452 521.759 394.452 525.182 396.954 527.293C399.456 529.404 403.513 529.404 406.016 527.293Z" fill="#96A0AA"/>
<path d="M140.689 221.947C144.958 221.947 148.418 219.027 148.418 215.426C148.418 211.824 144.958 208.905 140.689 208.905C136.42 208.905 132.96 211.824 132.96 215.426C132.96 219.027 136.42 221.947 140.689 221.947Z" fill="#646C76"/>
<path d="M68.6378 93.9141C71.2054 93.9141 73.2868 92.158 73.2868 89.9917C73.2868 87.8254 71.2054 86.0693 68.6378 86.0693C66.0702 86.0693 63.9888 87.8254 63.9888 89.9917C63.9888 92.158 66.0702 93.9141 68.6378 93.9141Z" fill="#646C76"/>
<path d="M330.403 371.459C335.484 371.459 339.603 367.983 339.603 363.696C339.603 359.409 335.484 355.934 330.403 355.934C325.322 355.934 321.203 359.409 321.203 363.696C321.203 367.983 325.322 371.459 330.403 371.459Z" fill="#646C76"/>
<path d="M146.016 580.722C151.098 580.722 155.217 577.247 155.217 572.96C155.217 568.673 151.098 565.197 146.016 565.197C140.935 565.197 136.816 568.673 136.816 572.96C136.816 577.247 140.935 580.722 146.016 580.722Z" fill="#96A0AA"/>
<path d="M232.257 129.88C237.338 129.88 241.457 126.405 241.457 122.118C241.457 117.831 237.338 114.355 232.257 114.355C227.175 114.355 223.056 117.831 223.056 122.118C223.056 126.405 227.175 129.88 232.257 129.88Z" fill="#646C80"/>
<path d="M3.02295 653.91H238.871C246.772 653.91 253.237 659.365 253.237 666.031V960.216C253.237 966.882 246.772 972.337 238.871 972.337L140.303 972.337" stroke="#646C76" stroke-width="6" stroke-linecap="round" stroke-linejoin="round"/>
<path d="M113.772 661.672C118.853 661.672 122.973 658.197 122.973 653.91C122.973 649.623 118.853 646.147 113.772 646.147C108.691 646.147 104.572 649.623 104.572 653.91C104.572 658.197 108.691 661.672 113.772 661.672Z" fill="#646C76"/>
<path d="M260.755 870.026C261.73 866.52 259.152 863.011 254.996 862.188C250.84 861.365 246.681 863.54 245.705 867.046C244.73 870.552 247.308 874.062 251.464 874.885C255.619 875.708 259.779 873.533 260.755 870.026Z" fill="#646C76"/>
</g>
</svg>
