<svg width="393" height="744" viewBox="0 0 393 744" fill="none" xmlns="http://www.w3.org/2000/svg">
<g opacity="0.1">
<path d="M268.862 16.0161V145.121C268.862 149.886 264.655 153.784 259.513 153.784H120.858C115.715 153.784 111.508 157.683 111.508 162.447V400.827C111.508 405.591 107.301 409.49 102.158 409.49H-41.8297" stroke="#96A0AA" stroke-width="6" stroke-linecap="round" stroke-linejoin="round"/>
<path d="M114.627 308.829C116.261 307.314 116.261 304.859 114.627 303.345C112.993 301.831 110.343 301.831 108.709 303.345C107.074 304.859 107.074 307.314 108.709 308.829C110.343 310.343 112.993 310.343 114.627 308.829Z" fill="#96A0AA"/>
<path d="M307.577 742.188V662.984C307.577 658.22 303.37 654.321 298.228 654.321H187.427C182.285 654.321 178.077 650.423 178.077 645.658V418.7C178.077 413.935 182.285 410.037 187.427 410.037H296.47C301.612 410.037 305.819 406.139 305.819 401.374V243.151C305.819 238.386 301.612 234.488 296.47 234.488H194.323C189.181 234.488 184.974 230.59 184.974 225.825V0" stroke="#25A0D5" stroke-width="4.5" stroke-miterlimit="10"/>
<path d="M251.049 742.188V595.753C251.049 590.988 246.842 587.09 241.7 587.09H77.7522C72.6099 587.09 68.4026 583.192 68.4026 578.427V134.171C68.4026 129.407 72.6099 125.509 77.7522 125.509H92.7341C97.8764 125.509 102.084 121.61 102.084 116.846V0" stroke="#646C80" stroke-width="4.5" stroke-miterlimit="10"/>
<path d="M73.8217 744V635.647C73.8217 630.883 69.6144 626.985 64.4721 626.985H8.09755C2.95525 626.985 -1.25208 623.086 -1.25208 618.322V537.479C-1.25208 532.715 2.95525 528.816 8.09755 528.816H131.726C136.868 528.816 141.075 524.918 141.075 520.153V369.072C141.075 364.307 136.868 360.409 131.726 360.409H28.8388C23.6965 360.409 19.4891 356.511 19.4891 351.746V237.004C19.4891 232.239 15.2818 228.341 10.1395 228.341H-48.9464" stroke="#25A0D5" stroke-width="4.5" stroke-miterlimit="10"/>
<path d="M336.666 737.742V522.077C336.666 517.312 332.459 513.414 327.316 513.414H221.688C216.546 513.414 212.338 509.516 212.338 504.751V292.274C212.338 287.509 216.546 283.611 221.688 283.611H267.007C272.15 283.611 276.357 279.712 276.357 274.948V207.093C276.357 202.328 272.15 198.43 267.007 198.43H229.452C224.31 198.43 220.102 194.531 220.102 189.767V12.8906" stroke="#96A0AA" stroke-width="6" stroke-linecap="round" stroke-linejoin="round"/>
<path d="M178.077 537.888C182.006 537.888 185.191 534.937 185.191 531.297C185.191 527.657 182.006 524.707 178.077 524.707C174.149 524.707 170.964 527.657 170.964 531.297C170.964 534.937 174.149 537.888 178.077 537.888Z" fill="#25A0D5"/>
<path d="M310.288 356.043C312.756 353.756 312.756 350.048 310.288 347.761C307.82 345.474 303.818 345.474 301.35 347.761C298.882 350.048 298.882 353.756 301.35 356.043C303.818 358.33 307.82 358.33 310.288 356.043Z" fill="#25A0D5"/>
<path d="M237.083 411.166C237.815 408.271 235.876 405.373 232.75 404.695C229.625 404.016 226.498 405.813 225.766 408.709C225.034 411.604 226.973 414.502 230.098 415.18C233.223 415.859 236.35 414.062 237.083 411.166Z" fill="#25A0D5"/>
<path d="M185.191 126.895C187.992 126.895 190.262 124.791 190.262 122.196C190.262 119.601 187.992 117.497 185.191 117.497C182.39 117.497 180.12 119.601 180.12 122.196C180.12 124.791 182.39 126.895 185.191 126.895Z" fill="#25A0D5"/>
<path d="M242.826 239.478C245.626 239.478 247.897 237.374 247.897 234.779C247.897 232.184 245.626 230.081 242.826 230.081C240.025 230.081 237.754 232.184 237.754 234.779C237.754 237.374 240.025 239.478 242.826 239.478Z" fill="#25A0D5"/>
<path d="M251.049 620.689C253.827 620.689 256.079 618.602 256.079 616.028C256.079 613.454 253.827 611.367 251.049 611.367C248.271 611.367 246.019 613.454 246.019 616.028C246.019 618.602 248.271 620.689 251.049 620.689Z" fill="#646C80"/>
<path d="M141.075 482.012C144.229 482.012 146.786 479.643 146.786 476.721C146.786 473.799 144.229 471.43 141.075 471.43C137.921 471.43 135.365 473.799 135.365 476.721C135.365 479.643 137.921 482.012 141.075 482.012Z" fill="#25A0D5"/>
<path d="M225.741 655.244C226.198 652.353 224.039 649.665 220.919 649.241C217.798 648.817 214.898 650.818 214.44 653.709C213.983 656.6 216.142 659.288 219.262 659.712C222.383 660.136 225.283 658.135 225.741 655.244Z" fill="#25A0D5"/>
<path d="M75.9603 674.876C78.8928 673.8 80.3288 670.725 79.1678 668.008C78.0067 665.291 74.6883 663.961 71.7558 665.037C68.8233 666.112 67.3873 669.187 68.5483 671.904C69.7094 674.621 73.0278 675.952 75.9603 674.876Z" fill="#25A0D5"/>
<path d="M247.522 286.223C248.997 284.856 248.997 282.64 247.522 281.273C246.047 279.907 243.655 279.907 242.18 281.273C240.705 282.64 240.705 284.856 242.18 286.223C243.655 287.59 246.047 287.59 247.522 286.223Z" fill="#96A0AA"/>
<path d="M336.513 613.12C339.576 613.12 342.059 610.82 342.059 607.982C342.059 605.144 339.576 602.843 336.513 602.843C333.45 602.843 330.966 605.144 330.966 607.982C330.966 610.82 333.45 613.12 336.513 613.12Z" fill="#96A0AA"/>
<path d="M250.208 202.466C252.585 202.466 254.513 200.68 254.513 198.478C254.513 196.275 252.585 194.489 250.208 194.489C247.831 194.489 245.903 196.275 245.903 198.478C245.903 200.68 247.831 202.466 250.208 202.466Z" fill="#96A0AA"/>
<path d="M148.189 159.512C151.495 159.512 154.176 157.029 154.176 153.965C154.176 150.901 151.495 148.417 148.189 148.417C144.882 148.417 142.201 150.901 142.201 153.965C142.201 157.029 144.882 159.512 148.189 159.512Z" fill="#96A0AA"/>
<path d="M273.381 98.1142C273.968 95.7983 272.418 93.4803 269.918 92.9367C267.419 92.3931 264.917 93.8298 264.33 96.1456C263.743 98.4615 265.294 100.78 267.793 101.323C270.293 101.867 272.795 100.43 273.381 98.1142Z" fill="#96A0AA"/>
<path d="M68.4324 250.768C71.4067 250.768 73.8178 248.534 73.8178 245.778C73.8178 243.022 71.4067 240.788 68.4324 240.788C65.4581 240.788 63.047 243.022 63.047 245.778C63.047 248.534 65.4581 250.768 68.4324 250.768Z" fill="#646C80"/>
<path d="M19.4927 315.171C22.1323 315.171 24.2722 313.189 24.2722 310.743C24.2722 308.297 22.1323 306.314 19.4927 306.314C16.853 306.314 14.7131 308.297 14.7131 310.743C14.7131 313.189 16.853 315.171 19.4927 315.171Z" fill="#25A0D5"/>
<path d="M68.4324 556.503C71.4067 556.503 73.8178 554.269 73.8178 551.513C73.8178 548.757 71.4067 546.523 68.4324 546.523C65.4581 546.523 63.047 548.757 63.047 551.513C63.047 554.269 65.4581 556.503 68.4324 556.503Z" fill="#646C80"/>
<path d="M399.361 744V560.177C399.361 555.412 395.153 551.514 390.011 551.514H274.038C268.896 551.514 264.689 547.615 264.689 542.851V348.732C264.689 343.967 260.481 340.069 255.339 340.069H175.089C169.947 340.069 165.74 336.171 165.74 331.406V218.292C165.74 213.528 161.532 209.629 156.39 209.629H51.9622C46.8199 209.629 42.6125 205.731 42.6125 200.966V101.488C42.6125 96.7237 38.4052 92.8253 33.2629 92.8253H5.07192C-0.0703771 92.8253 -4.27771 88.927 -4.27771 84.1624V9.76172" stroke="#646C76" stroke-width="4.5" stroke-miterlimit="10"/>
<path d="M372.767 558.103C376.695 558.103 379.88 555.153 379.88 551.513C379.88 547.873 376.695 544.922 372.767 544.922C368.838 544.922 365.653 547.873 365.653 551.513C365.653 555.153 368.838 558.103 372.767 558.103Z" fill="#646C76"/>
<path d="M404.729 690.949C405.431 688.194 403.59 685.434 400.617 684.783C397.644 684.133 394.664 685.839 393.963 688.594C393.261 691.349 395.102 694.109 398.075 694.759C401.049 695.409 404.028 693.703 404.729 690.949Z" fill="#646C76"/>
<path d="M267.635 460.978C269.264 459.469 269.264 457.023 267.635 455.514C266.007 454.005 263.367 454.005 261.738 455.514C260.11 457.023 260.11 459.469 261.738 460.978C263.367 462.487 266.007 462.487 267.635 460.978Z" fill="#646C76"/>
<path d="M215.284 376.855C216.913 375.346 216.913 372.9 215.284 371.391C213.656 369.882 211.015 369.882 209.387 371.391C207.758 372.9 207.758 375.346 209.387 376.855C211.015 378.364 213.656 378.364 215.284 376.855Z" fill="#96A0AA"/>
<path d="M42.6126 158.625C45.3907 158.625 47.6427 156.538 47.6427 153.964C47.6427 151.39 45.3907 149.304 42.6126 149.304C39.8346 149.304 37.5825 151.39 37.5825 153.964C37.5825 156.538 39.8346 158.625 42.6126 158.625Z" fill="#646C76"/>
<path d="M166.076 265.481C169.383 265.481 172.064 262.997 172.064 259.933C172.064 256.87 169.383 254.386 166.076 254.386C162.77 254.386 160.089 256.87 160.089 259.933C160.089 262.997 162.77 265.481 166.076 265.481Z" fill="#646C76"/>
<path d="M46.0794 415.041C49.3862 415.041 52.0669 412.557 52.0669 409.493C52.0669 406.429 49.3862 403.945 46.0794 403.945C42.7726 403.945 40.0919 406.429 40.0919 409.493C40.0919 412.557 42.7726 415.041 46.0794 415.041Z" fill="#96A0AA"/>
<path d="M102.203 92.825C105.51 92.825 108.191 90.3412 108.191 87.2772C108.191 84.2133 105.51 81.7295 102.203 81.7295C98.8965 81.7295 96.2158 84.2133 96.2158 87.2772C96.2158 90.3412 98.8965 92.825 102.203 92.825Z" fill="#646C80"/>
<path d="M-46.9793 467.348H106.508C111.65 467.348 115.858 471.246 115.858 476.011V686.263C115.858 691.028 111.65 694.926 106.508 694.926H-61" stroke="#646C76" stroke-width="6" stroke-linecap="round" stroke-linejoin="round"/>
<path d="M25.095 472.895C28.4019 472.895 31.0825 470.411 31.0825 467.348C31.0825 464.284 28.4019 461.8 25.095 461.8C21.7882 461.8 19.1075 464.284 19.1075 467.348C19.1075 470.411 21.7882 472.895 25.095 472.895Z" fill="#646C76"/>
<path d="M120.75 621.806C121.385 619.3 119.707 616.792 117.002 616.204C114.298 615.616 111.591 617.17 110.956 619.676C110.321 622.182 111.999 624.69 114.703 625.278C117.408 625.867 120.115 624.312 120.75 621.806Z" fill="#646C76"/>
</g>
</svg>
