<svg width="823" height="1412" viewBox="0 0 823 1412" fill="none" xmlns="http://www.w3.org/2000/svg">
<g opacity="0.2">
<path d="M581.907 30.3887V275.351C581.907 284.392 574.511 291.788 565.47 291.788H321.711C312.67 291.788 305.274 299.185 305.274 308.225V760.523C305.274 769.564 297.877 776.96 288.837 776.96H35.7017" stroke="#96A0AA" stroke-width="6" stroke-linecap="round" stroke-linejoin="round"/>
<path d="M310.758 585.968C313.631 583.095 313.631 578.436 310.758 575.563C307.885 572.69 303.226 572.69 300.353 575.563C297.48 578.436 297.48 583.095 300.353 585.968C303.226 588.841 307.885 588.841 310.758 585.968Z" fill="#96A0AA"/>
<path d="M649.97 1408.22V1257.94C649.97 1248.9 642.573 1241.5 633.533 1241.5H438.742C429.702 1241.5 422.305 1234.1 422.305 1225.06V794.436C422.305 785.396 429.702 777.999 438.742 777.999H630.443C639.483 777.999 646.88 770.602 646.88 761.562V461.352C646.88 452.311 639.483 444.915 630.443 444.915H450.866C441.826 444.915 434.429 437.518 434.429 428.478V0" stroke="#25A0D5" stroke-width="4.5" stroke-miterlimit="10"/>
<path d="M550.592 1408.22V1130.37C550.592 1121.33 543.196 1113.94 534.155 1113.94H245.931C236.89 1113.94 229.494 1106.54 229.494 1097.5V254.575C229.494 245.535 236.89 238.138 245.931 238.138H272.269C281.309 238.138 288.706 230.742 288.706 221.701V0" stroke="#646C80" stroke-width="4.5" stroke-miterlimit="10"/>
<path d="M239.02 1411.66V1206.07C239.02 1197.03 231.624 1189.63 222.583 1189.63H123.475C114.435 1189.63 107.038 1182.24 107.038 1173.2V1019.81C107.038 1010.77 114.435 1003.37 123.475 1003.37H340.818C349.858 1003.37 357.255 995.972 357.255 986.932V700.272C357.255 691.232 349.858 683.835 340.818 683.835H159.939C150.899 683.835 143.502 676.439 143.502 667.398V449.688C143.502 440.648 136.106 433.251 127.065 433.251H23.1904" stroke="#25A0D5" stroke-width="4.5" stroke-miterlimit="10"/>
<path d="M701.108 1399.78V990.581C701.108 981.541 693.712 974.144 684.671 974.144H498.974C489.933 974.144 482.537 966.748 482.537 957.707V554.555C482.537 545.515 489.933 538.119 498.974 538.119H578.647C587.687 538.119 595.084 530.722 595.084 521.682V392.934C595.084 383.894 587.687 376.498 578.647 376.498H512.623C503.582 376.498 496.186 369.101 496.186 360.061V24.458" stroke="#96A0AA" stroke-width="6" stroke-linecap="round" stroke-linejoin="round"/>
<path d="M422.305 1020.58C429.211 1020.58 434.81 1014.98 434.81 1008.08C434.81 1001.17 429.211 995.571 422.305 995.571C415.399 995.571 409.8 1001.17 409.8 1008.08C409.8 1014.98 415.399 1020.58 422.305 1020.58Z" fill="#25A0D5"/>
<path d="M654.736 675.552C659.075 671.213 659.075 664.178 654.736 659.838C650.397 655.499 643.361 655.499 639.022 659.838C634.683 664.178 634.683 671.213 639.022 675.552C643.361 679.891 650.397 679.891 654.736 675.552Z" fill="#25A0D5"/>
<path d="M526.039 780.141C527.326 774.647 523.916 769.149 518.422 767.862C512.928 766.574 507.431 769.984 506.143 775.478C504.856 780.972 508.266 786.47 513.76 787.757C519.254 789.045 524.751 785.635 526.039 780.141Z" fill="#25A0D5"/>
<path d="M434.81 240.768C439.734 240.768 443.726 236.777 443.726 231.853C443.726 226.929 439.734 222.938 434.81 222.938C429.887 222.938 425.895 226.929 425.895 231.853C425.895 236.777 429.887 240.768 434.81 240.768Z" fill="#25A0D5"/>
<path d="M536.135 454.383C541.058 454.383 545.05 450.391 545.05 445.467C545.05 440.543 541.058 436.552 536.135 436.552C531.211 436.552 527.219 440.543 527.219 445.467C527.219 450.391 531.211 454.383 536.135 454.383Z" fill="#25A0D5"/>
<path d="M550.592 1177.69C555.476 1177.69 559.435 1173.73 559.435 1168.84C559.435 1163.96 555.476 1160 550.592 1160C545.708 1160 541.749 1163.96 541.749 1168.84C541.749 1173.73 545.708 1177.69 550.592 1177.69Z" fill="#646C80"/>
<path d="M357.255 914.564C362.799 914.564 367.294 910.069 367.294 904.524C367.294 898.979 362.799 894.484 357.255 894.484C351.71 894.484 347.215 898.979 347.215 904.524C347.215 910.069 351.71 914.564 357.255 914.564Z" fill="#25A0D5"/>
<path d="M506.099 1243.25C506.903 1237.76 503.108 1232.66 497.622 1231.86C492.136 1231.06 487.036 1234.85 486.232 1240.34C485.428 1245.82 489.223 1250.92 494.709 1251.73C500.196 1252.53 505.295 1248.74 506.099 1243.25Z" fill="#25A0D5"/>
<path d="M242.78 1280.5C247.935 1278.46 250.46 1272.63 248.419 1267.47C246.378 1262.31 240.544 1259.79 235.388 1261.83C230.233 1263.87 227.708 1269.71 229.75 1274.86C231.791 1280.02 237.625 1282.54 242.78 1280.5Z" fill="#25A0D5"/>
<path d="M544.39 543.075C546.984 540.482 546.984 536.278 544.39 533.684C541.797 531.091 537.593 531.091 534.999 533.684C532.406 536.278 532.406 540.482 534.999 543.075C537.593 545.669 541.797 545.669 544.39 543.075Z" fill="#96A0AA"/>
<path d="M700.839 1163.33C706.224 1163.33 710.59 1158.96 710.59 1153.58C710.59 1148.19 706.224 1143.83 700.839 1143.83C695.454 1143.83 691.089 1148.19 691.089 1153.58C691.089 1158.96 695.454 1163.33 700.839 1163.33Z" fill="#96A0AA"/>
<path d="M549.113 384.158C553.292 384.158 556.681 380.769 556.681 376.59C556.681 372.411 553.292 369.022 549.113 369.022C544.934 369.022 541.545 372.411 541.545 376.59C541.545 380.769 544.934 384.158 549.113 384.158Z" fill="#96A0AA"/>
<path d="M369.76 302.656C375.573 302.656 380.286 297.943 380.286 292.13C380.286 286.316 375.573 281.604 369.76 281.604C363.946 281.604 359.233 286.316 359.233 292.13C359.233 297.943 363.946 302.656 369.76 302.656Z" fill="#96A0AA"/>
<path d="M589.853 186.161C590.884 181.767 588.158 177.368 583.764 176.337C579.37 175.306 574.972 178.032 573.94 182.426C572.909 186.82 575.635 191.218 580.029 192.249C584.423 193.281 588.821 190.555 589.853 186.161Z" fill="#96A0AA"/>
<path d="M229.546 475.803C234.775 475.803 239.013 471.564 239.013 466.335C239.013 461.106 234.775 456.867 229.546 456.867C224.317 456.867 220.078 461.106 220.078 466.335C220.078 471.564 224.317 475.803 229.546 475.803Z" fill="#646C80"/>
<path d="M143.509 598.001C148.149 598.001 151.911 594.239 151.911 589.599C151.911 584.958 148.149 581.196 143.509 581.196C138.868 581.196 135.106 584.958 135.106 589.599C135.106 594.239 138.868 598.001 143.509 598.001Z" fill="#25A0D5"/>
<path d="M229.546 1055.9C234.775 1055.9 239.013 1051.66 239.013 1046.43C239.013 1041.2 234.775 1036.97 229.546 1036.97C224.317 1036.97 220.078 1041.2 220.078 1046.43C220.078 1051.66 224.317 1055.9 229.546 1055.9Z" fill="#646C80"/>
<path d="M811.328 1411.66V1062.87C811.328 1053.83 803.931 1046.43 794.891 1046.43H591.007C581.967 1046.43 574.57 1039.04 574.57 1030V661.679C574.57 652.638 567.174 645.242 558.133 645.242H417.052C408.011 645.242 400.615 637.845 400.615 628.805V414.185C400.615 405.144 393.218 397.748 384.178 397.748H200.591C191.55 397.748 184.154 390.351 184.154 381.311V192.562C184.154 183.522 176.757 176.125 167.717 176.125H118.156C109.116 176.125 101.719 168.729 101.719 159.688V18.5215" stroke="#646C76" stroke-width="4.5" stroke-miterlimit="10"/>
<path d="M764.575 1058.94C771.481 1058.94 777.08 1053.34 777.08 1046.43C777.08 1039.53 771.481 1033.93 764.575 1033.93C757.668 1033.93 752.069 1039.53 752.069 1046.43C752.069 1053.34 757.668 1058.94 764.575 1058.94Z" fill="#646C76"/>
<path d="M820.766 1311C822 1305.77 818.763 1300.53 813.536 1299.3C808.309 1298.06 803.072 1301.3 801.838 1306.53C800.605 1311.75 803.842 1316.99 809.069 1318.23C814.295 1319.46 819.533 1316.22 820.766 1311Z" fill="#646C76"/>
<path d="M579.751 874.653C582.614 871.791 582.614 867.149 579.751 864.286C576.888 861.423 572.246 861.423 569.383 864.286C566.521 867.149 566.521 871.791 569.383 874.653C572.246 877.516 576.888 877.516 579.751 874.653Z" fill="#646C76"/>
<path d="M487.716 715.04C490.579 712.177 490.579 707.536 487.716 704.673C484.853 701.81 480.211 701.81 477.348 704.673C474.485 707.536 474.485 712.177 477.348 715.04C480.211 717.903 484.853 717.903 487.716 715.04Z" fill="#96A0AA"/>
<path d="M184.154 300.973C189.038 300.973 192.997 297.014 192.997 292.13C192.997 287.246 189.038 283.287 184.154 283.287C179.27 283.287 175.311 287.246 175.311 292.13C175.311 297.014 179.27 300.973 184.154 300.973Z" fill="#646C76"/>
<path d="M101.719 127.354C104.657 127.354 107.038 124.972 107.038 122.035C107.038 119.097 104.657 116.716 101.719 116.716C98.7818 116.716 96.4004 119.097 96.4004 122.035C96.4004 124.972 98.7818 127.354 101.719 127.354Z" fill="#646C76"/>
<path d="M401.207 503.72C407.02 503.72 411.733 499.008 411.733 493.194C411.733 487.381 407.02 482.668 401.207 482.668C395.393 482.668 390.681 487.381 390.681 493.194C390.681 499.008 395.393 503.72 401.207 503.72Z" fill="#646C76"/>
<path d="M190.249 787.493C196.062 787.493 200.775 782.78 200.775 776.967C200.775 771.153 196.062 766.44 190.249 766.44C184.435 766.44 179.723 771.153 179.723 776.967C179.723 782.78 184.435 787.493 190.249 787.493Z" fill="#96A0AA"/>
<path d="M288.916 176.125C294.73 176.125 299.443 171.412 299.443 165.598C299.443 159.785 294.73 155.072 288.916 155.072C283.103 155.072 278.39 159.785 278.39 165.598C278.39 171.412 283.103 176.125 288.916 176.125Z" fill="#646C80"/>
<path d="M26.6488 886.739H296.484C305.524 886.739 312.921 894.136 312.921 903.176V1302.11C312.921 1311.15 305.524 1318.54 296.484 1318.54H2" stroke="#646C76" stroke-width="6" stroke-linecap="round" stroke-linejoin="round"/>
<path d="M153.358 897.265C159.171 897.265 163.884 892.553 163.884 886.739C163.884 880.926 159.171 876.213 153.358 876.213C147.544 876.213 142.832 880.926 142.832 886.739C142.832 892.553 147.544 897.265 153.358 897.265Z" fill="#646C76"/>
<path d="M321.522 1179.81C322.638 1175.05 319.688 1170.29 314.933 1169.18C310.179 1168.06 305.42 1171.01 304.304 1175.76C303.187 1180.52 306.137 1185.28 310.892 1186.39C315.646 1187.51 320.406 1184.56 321.522 1179.81Z" fill="#646C76"/>
</g>
</svg>
