<svg width="632" height="1116" viewBox="0 0 632 1116" fill="none" xmlns="http://www.w3.org/2000/svg">
<g opacity="0.2">
<path d="M440.863 23.0459V216.877C440.863 224.031 435.01 229.883 427.857 229.883H234.977C227.824 229.883 221.971 235.736 221.971 242.89V600.779C221.971 607.933 216.118 613.785 208.965 613.785H8.66699" stroke="#96A0AA" stroke-width="6" stroke-linecap="round" stroke-linejoin="round"/>
<path d="M226.311 462.658C228.584 460.385 228.584 456.699 226.311 454.426C224.037 452.152 220.351 452.152 218.078 454.426C215.804 456.699 215.804 460.385 218.078 462.658C220.351 464.932 224.037 464.932 226.311 462.658Z" fill="#96A0AA"/>
<path d="M494.719 1113.28V994.368C494.719 987.214 488.866 981.362 481.713 981.362H327.581C320.427 981.362 314.575 975.509 314.575 968.356V627.613C314.575 620.46 320.427 614.607 327.581 614.607H479.268C486.421 614.607 492.274 608.754 492.274 601.601V364.053C492.274 356.9 486.421 351.047 479.268 351.047H337.174C330.021 351.047 324.168 345.195 324.168 338.041V-1" stroke="#25A0D5" stroke-width="4.5" stroke-miterlimit="10"/>
<path d="M416.084 1113.28V893.43C416.084 886.277 410.232 880.424 403.078 880.424H175.015C167.862 880.424 162.009 874.572 162.009 867.418V200.437C162.009 193.284 167.862 187.431 175.015 187.431H195.856C203.009 187.431 208.862 181.579 208.862 174.425V-1" stroke="#646C80" stroke-width="4.5" stroke-miterlimit="10"/>
<path d="M169.547 1116V953.326C169.547 946.172 163.695 940.32 156.541 940.32H78.12C70.9667 940.32 65.114 934.467 65.114 927.314V805.941C65.114 798.788 70.9667 792.935 78.12 792.935H250.096C257.25 792.935 263.102 787.083 263.102 779.929V553.104C263.102 545.951 257.25 540.098 250.096 540.098H106.973C99.8193 540.098 93.9666 534.245 93.9666 527.092V354.824C93.9666 347.671 88.1139 341.818 80.9605 341.818H-1.23242" stroke="#25A0D5" stroke-width="4.5" stroke-miterlimit="10"/>
<path d="M535.183 1106.6V782.816C535.183 775.663 529.33 769.81 522.177 769.81H375.24C368.087 769.81 362.234 763.957 362.234 756.804V437.802C362.234 430.649 368.087 424.796 375.24 424.796H438.283C445.436 424.796 451.289 418.944 451.289 411.79V309.917C451.289 302.763 445.436 296.911 438.283 296.911H386.04C378.887 296.911 373.034 291.058 373.034 283.905V18.3525" stroke="#96A0AA" stroke-width="6" stroke-linecap="round" stroke-linejoin="round"/>
<path d="M314.575 806.556C320.04 806.556 324.47 802.125 324.47 796.661C324.47 791.196 320.04 786.766 314.575 786.766C309.11 786.766 304.68 791.196 304.68 796.661C304.68 802.125 309.11 806.556 314.575 806.556Z" fill="#25A0D5"/>
<path d="M498.49 533.543C501.923 530.11 501.923 524.543 498.49 521.109C495.056 517.676 489.489 517.676 486.056 521.109C482.622 524.543 482.622 530.11 486.056 533.543C489.489 536.977 495.056 536.977 498.49 533.543Z" fill="#25A0D5"/>
<path d="M396.656 616.302C397.674 611.954 394.976 607.604 390.629 606.586C386.282 605.567 381.932 608.265 380.913 612.612C379.894 616.959 382.592 621.309 386.94 622.328C391.287 623.347 395.637 620.649 396.656 616.302Z" fill="#25A0D5"/>
<path d="M324.47 189.512C328.366 189.512 331.524 186.354 331.524 182.458C331.524 178.562 328.366 175.403 324.47 175.403C320.574 175.403 317.416 178.562 317.416 182.458C317.416 186.354 320.574 189.512 324.47 189.512Z" fill="#25A0D5"/>
<path d="M404.644 358.539C408.54 358.539 411.699 355.38 411.699 351.484C411.699 347.588 408.54 344.43 404.644 344.43C400.748 344.43 397.59 347.588 397.59 351.484C397.59 355.38 400.748 358.539 404.644 358.539Z" fill="#25A0D5"/>
<path d="M416.084 930.868C419.949 930.868 423.081 927.735 423.081 923.87C423.081 920.006 419.949 916.873 416.084 916.873C412.22 916.873 409.087 920.006 409.087 923.87C409.087 927.735 412.22 930.868 416.084 930.868Z" fill="#646C80"/>
<path d="M263.102 722.667C267.49 722.667 271.046 719.11 271.046 714.722C271.046 710.335 267.49 706.778 263.102 706.778C258.715 706.778 255.158 710.335 255.158 714.722C255.158 719.11 258.715 722.667 263.102 722.667Z" fill="#25A0D5"/>
<path d="M380.878 982.746C381.515 978.405 378.511 974.37 374.17 973.734C369.829 973.097 365.795 976.101 365.158 980.442C364.522 984.783 367.525 988.818 371.866 989.454C376.207 990.09 380.242 987.087 380.878 982.746Z" fill="#25A0D5"/>
<path d="M172.522 1012.22C176.601 1010.61 178.599 1005.99 176.984 1001.91C175.369 997.831 170.753 995.834 166.673 997.449C162.594 999.064 160.596 1003.68 162.212 1007.76C163.827 1011.84 168.443 1013.84 172.522 1012.22Z" fill="#25A0D5"/>
<path d="M411.177 428.718C413.229 426.666 413.229 423.339 411.177 421.287C409.125 419.235 405.798 419.236 403.746 421.287C401.694 423.339 401.694 426.666 403.746 428.718C405.798 430.77 409.125 430.77 411.177 428.718Z" fill="#96A0AA"/>
<path d="M534.97 919.505C539.231 919.505 542.685 916.05 542.685 911.789C542.685 907.528 539.231 904.074 534.97 904.074C530.709 904.074 527.255 907.528 527.255 911.789C527.255 916.05 530.709 919.505 534.97 919.505Z" fill="#96A0AA"/>
<path d="M414.914 302.972C418.221 302.972 420.902 300.291 420.902 296.984C420.902 293.677 418.221 290.996 414.914 290.996C411.607 290.996 408.926 293.677 408.926 296.984C408.926 300.291 411.607 302.972 414.914 302.972Z" fill="#96A0AA"/>
<path d="M272.997 238.482C277.597 238.482 281.326 234.753 281.326 230.153C281.326 225.553 277.597 221.824 272.997 221.824C268.397 221.824 264.668 225.553 264.668 230.153C264.668 234.753 268.397 238.482 272.997 238.482Z" fill="#96A0AA"/>
<path d="M447.15 146.304C447.966 142.827 445.809 139.346 442.332 138.53C438.855 137.714 435.375 139.871 434.559 143.348C433.743 146.825 435.9 150.305 439.377 151.121C442.853 151.937 446.334 149.78 447.15 146.304Z" fill="#96A0AA"/>
<path d="M162.05 375.489C166.188 375.489 169.542 372.135 169.542 367.997C169.542 363.86 166.188 360.506 162.05 360.506C157.913 360.506 154.559 363.86 154.559 367.997C154.559 372.135 157.913 375.489 162.05 375.489Z" fill="#646C80"/>
<path d="M93.9714 472.18C97.6434 472.18 100.62 469.203 100.62 465.532C100.62 461.86 97.6434 458.883 93.9714 458.883C90.2995 458.883 87.3228 461.86 87.3228 465.532C87.3228 469.203 90.2995 472.18 93.9714 472.18Z" fill="#25A0D5"/>
<path d="M162.05 834.503C166.188 834.503 169.542 831.148 169.542 827.011C169.542 822.874 166.188 819.52 162.05 819.52C157.913 819.52 154.559 822.874 154.559 827.011C154.559 831.148 157.913 834.503 162.05 834.503Z" fill="#646C80"/>
<path d="M622.396 1116V840.017C622.396 832.864 616.544 827.011 609.39 827.011H448.063C440.91 827.011 435.057 821.158 435.057 814.005V522.566C435.057 515.413 429.205 509.56 422.051 509.56H310.418C303.264 509.56 297.412 503.707 297.412 496.554V326.731C297.412 319.578 291.559 313.725 284.406 313.725H139.139C131.985 313.725 126.133 307.873 126.133 300.719V151.368C126.133 144.215 120.28 138.362 113.127 138.362H73.9108C66.7575 138.362 60.9048 132.51 60.9048 125.356V13.6553" stroke="#646C76" stroke-width="4.5" stroke-miterlimit="10"/>
<path d="M585.402 836.906C590.867 836.906 595.297 832.476 595.297 827.011C595.297 821.546 590.867 817.116 585.402 817.116C579.937 817.116 575.507 821.546 575.507 827.011C575.507 832.476 579.937 836.906 585.402 836.906Z" fill="#646C76"/>
<path d="M629.865 1036.35C630.841 1032.22 628.28 1028.07 624.144 1027.09C620.008 1026.12 615.864 1028.68 614.888 1032.82C613.911 1036.95 616.473 1041.1 620.609 1042.07C624.745 1043.05 628.889 1040.49 629.865 1036.35Z" fill="#646C76"/>
<path d="M439.157 691.086C441.422 688.821 441.422 685.148 439.157 682.883C436.891 680.617 433.219 680.617 430.953 682.883C428.688 685.148 428.688 688.821 430.953 691.086C433.219 693.351 436.891 693.351 439.157 691.086Z" fill="#646C76"/>
<path d="M366.332 564.789C368.597 562.524 368.597 558.851 366.332 556.586C364.067 554.32 360.394 554.32 358.129 556.586C355.863 558.851 355.863 562.524 358.129 564.789C360.394 567.055 364.067 567.055 366.332 564.789Z" fill="#96A0AA"/>
<path d="M126.133 237.152C129.997 237.152 133.13 234.019 133.13 230.154C133.13 226.29 129.997 223.157 126.133 223.157C122.269 223.157 119.136 226.29 119.136 230.154C119.136 234.019 122.269 237.152 126.133 237.152Z" fill="#646C76"/>
<path d="M60.905 99.771C63.2295 99.771 65.1138 97.8867 65.1138 95.5623C65.1138 93.2378 63.2295 91.3535 60.905 91.3535C58.5806 91.3535 56.6963 93.2378 56.6963 95.5623C56.6963 97.8867 58.5806 99.771 60.905 99.771Z" fill="#646C76"/>
<path d="M297.88 397.578C302.48 397.578 306.209 393.849 306.209 389.249C306.209 384.649 302.48 380.92 297.88 380.92C293.28 380.92 289.551 384.649 289.551 389.249C289.551 393.849 293.28 397.578 297.88 397.578Z" fill="#646C76"/>
<path d="M130.956 622.119C135.556 622.119 139.285 618.39 139.285 613.79C139.285 609.19 135.556 605.461 130.956 605.461C126.356 605.461 122.626 609.19 122.626 613.79C122.626 618.39 126.356 622.119 130.956 622.119Z" fill="#96A0AA"/>
<path d="M209.028 138.362C213.628 138.362 217.357 134.633 217.357 130.033C217.357 125.433 213.628 121.704 209.028 121.704C204.428 121.704 200.699 125.433 200.699 130.033C200.699 134.633 204.428 138.362 209.028 138.362Z" fill="#646C80"/>
<path d="M1.50386 700.649H215.016C222.17 700.649 228.022 706.502 228.022 713.655V1029.32C228.022 1036.47 222.17 1042.32 215.016 1042.32H-18" stroke="#646C76" stroke-width="6" stroke-linecap="round" stroke-linejoin="round"/>
<path d="M101.765 708.978C106.365 708.978 110.094 705.249 110.094 700.649C110.094 696.049 106.365 692.32 101.765 692.32C97.1646 692.32 93.4355 696.049 93.4355 700.649C93.4355 705.249 97.1646 708.978 101.765 708.978Z" fill="#646C76"/>
<path d="M234.828 932.545C235.711 928.783 233.377 925.017 229.615 924.134C225.852 923.251 222.087 925.585 221.204 929.347C220.32 933.109 222.654 936.875 226.417 937.758C230.179 938.641 233.945 936.307 234.828 932.545Z" fill="#646C76"/>
</g>
</svg>
