<svg width="706" height="1366" viewBox="0 0 706 1366" fill="none" xmlns="http://www.w3.org/2000/svg">
<g opacity="0.15">
<path d="M466.53 -8.36719V238.564C466.53 247.677 459.189 255.133 450.217 255.133H208.297C199.325 255.133 191.985 262.589 191.985 271.702V727.635C191.985 736.748 184.644 744.204 175.672 744.204H-75.5527" stroke="#96A0AA" stroke-width="6" stroke-linecap="round" stroke-linejoin="round"/>
<path d="M197.427 551.677C200.279 548.78 200.279 544.085 197.427 541.189C194.576 538.292 189.952 538.292 187.101 541.189C184.25 544.085 184.25 548.78 187.101 551.677C189.952 554.573 194.576 554.573 197.427 551.677Z" fill="#96A0AA"/>
<path d="M534.079 1380.53V1229.05C534.079 1219.93 526.738 1212.48 517.766 1212.48H324.445C315.473 1212.48 308.133 1205.02 308.133 1195.91V761.82C308.133 752.707 315.473 745.251 324.445 745.251H514.699C523.671 745.251 531.012 737.795 531.012 728.682V426.059C531.012 416.946 523.671 409.49 514.699 409.49H336.478C327.506 409.49 320.165 402.034 320.165 392.921V-39" stroke="#25A0D5" stroke-width="4.5" stroke-miterlimit="10"/>
<path d="M435.451 1380.53V1100.46C435.451 1091.34 428.11 1083.89 419.138 1083.89H133.089C124.117 1083.89 116.776 1076.43 116.776 1067.32V217.621C116.776 208.508 124.117 201.052 133.089 201.052H159.229C168.201 201.052 175.542 193.596 175.542 184.483V-39" stroke="#646C80" stroke-width="4.5" stroke-miterlimit="10"/>
<path d="M126.231 1384V1176.76C126.231 1167.65 118.891 1160.19 109.918 1160.19H11.5585C2.58641 1160.19 -4.75438 1152.74 -4.75438 1143.62V989.001C-4.75438 979.888 2.58641 972.432 11.5585 972.432H227.26C236.232 972.432 243.573 964.976 243.573 955.863V666.899C243.573 657.786 236.232 650.33 227.26 650.33H47.7469C38.7748 650.33 31.4341 642.874 31.4341 633.761V414.301C31.4341 405.188 24.0933 397.732 15.1212 397.732H-87.9695" stroke="#25A0D5" stroke-width="4.5" stroke-miterlimit="10"/>
<path d="M584.831 1372.03V959.541C584.831 950.428 577.49 942.972 568.518 942.972H384.222C375.25 942.972 367.909 935.516 367.909 926.403V520.012C367.909 510.899 375.25 503.443 384.222 503.443H463.294C472.266 503.443 479.607 495.987 479.607 486.874V357.092C479.607 347.979 472.266 340.523 463.294 340.523H397.768C388.796 340.523 381.455 333.067 381.455 323.954V-14.3457" stroke="#96A0AA" stroke-width="6" stroke-linecap="round" stroke-linejoin="round"/>
<path d="M308.133 989.784C314.987 989.784 320.543 984.14 320.543 977.178C320.543 970.216 314.987 964.572 308.133 964.572C301.278 964.572 295.722 970.216 295.722 977.178C295.722 984.14 301.278 989.784 308.133 989.784Z" fill="#25A0D5"/>
<path d="M538.808 641.981C543.115 637.606 543.115 630.515 538.808 626.14C534.502 621.766 527.52 621.766 523.213 626.14C518.907 630.515 518.906 637.606 523.213 641.981C527.519 646.355 534.502 646.355 538.808 641.981Z" fill="#25A0D5"/>
<path d="M411.083 747.411C412.361 741.873 408.976 736.331 403.524 735.033C398.071 733.735 392.615 737.173 391.338 742.711C390.06 748.249 393.444 753.79 398.896 755.088C404.349 756.386 409.805 752.949 411.083 747.411Z" fill="#25A0D5"/>
<path d="M320.544 203.704C325.43 203.704 329.392 199.68 329.392 194.717C329.392 189.753 325.43 185.729 320.544 185.729C315.657 185.729 311.695 189.753 311.695 194.717C311.695 199.68 315.657 203.704 320.544 203.704Z" fill="#25A0D5"/>
<path d="M421.103 419.034C425.989 419.034 429.951 415.01 429.951 410.047C429.951 405.083 425.989 401.06 421.103 401.06C416.216 401.06 412.255 405.083 412.255 410.047C412.255 415.01 416.216 419.034 421.103 419.034Z" fill="#25A0D5"/>
<path d="M435.451 1148.15C440.298 1148.15 444.227 1144.16 444.227 1139.24C444.227 1134.31 440.298 1130.32 435.451 1130.32C430.604 1130.32 426.675 1134.31 426.675 1139.24C426.675 1144.16 430.604 1148.15 435.451 1148.15Z" fill="#646C80"/>
<path d="M243.573 882.914C249.076 882.914 253.537 878.383 253.537 872.793C253.537 867.204 249.076 862.673 243.573 862.673C238.07 862.673 233.609 867.204 233.609 872.793C233.609 878.383 238.07 882.914 243.573 882.914Z" fill="#25A0D5"/>
<path d="M391.294 1214.24C392.092 1208.71 388.325 1203.57 382.88 1202.76C377.436 1201.95 372.375 1205.78 371.577 1211.31C370.778 1216.84 374.545 1221.98 379.99 1222.79C385.435 1223.6 390.495 1219.77 391.294 1214.24Z" fill="#25A0D5"/>
<path d="M129.963 1251.79C135.079 1249.73 137.585 1243.85 135.559 1238.65C133.533 1233.46 127.743 1230.91 122.627 1232.97C117.51 1235.03 115.005 1240.91 117.031 1246.11C119.056 1251.3 124.846 1253.85 129.963 1251.79Z" fill="#25A0D5"/>
<path d="M429.296 508.438C431.87 505.824 431.87 501.586 429.296 498.972C426.722 496.358 422.549 496.358 419.976 498.972C417.402 501.586 417.402 505.824 419.976 508.438C422.549 511.052 426.722 511.053 429.296 508.438Z" fill="#96A0AA"/>
<path d="M584.564 1133.68C589.908 1133.68 594.241 1129.28 594.241 1123.85C594.241 1118.42 589.908 1114.02 584.564 1114.02C579.219 1114.02 574.887 1118.42 574.887 1123.85C574.887 1129.28 579.219 1133.68 584.564 1133.68Z" fill="#96A0AA"/>
<path d="M433.983 348.244C438.131 348.244 441.493 344.829 441.493 340.616C441.493 336.403 438.131 332.987 433.983 332.987C429.835 332.987 426.473 336.403 426.473 340.616C426.473 344.829 429.835 348.244 433.983 348.244Z" fill="#96A0AA"/>
<path d="M255.983 266.089C261.753 266.089 266.43 261.338 266.43 255.478C266.43 249.618 261.753 244.867 255.983 244.867C250.214 244.867 245.537 249.618 245.537 255.478C245.537 261.338 250.214 266.089 255.983 266.089Z" fill="#96A0AA"/>
<path d="M474.415 148.657C475.439 144.228 472.734 139.794 468.373 138.754C464.012 137.715 459.647 140.463 458.623 144.892C457.599 149.321 460.305 153.755 464.666 154.795C469.027 155.834 473.392 153.087 474.415 148.657Z" fill="#96A0AA"/>
<path d="M116.828 440.627C122.018 440.627 126.225 436.354 126.225 431.083C126.225 425.812 122.018 421.539 116.828 421.539C111.639 421.539 107.432 425.812 107.432 431.083C107.432 436.354 111.639 440.627 116.828 440.627Z" fill="#646C80"/>
<path d="M31.4402 563.807C36.0458 563.807 39.7793 560.015 39.7793 555.337C39.7793 550.659 36.0458 546.867 31.4402 546.867C26.8346 546.867 23.1011 550.659 23.1011 555.337C23.1011 560.015 26.8346 563.807 31.4402 563.807Z" fill="#25A0D5"/>
<path d="M116.828 1025.39C122.018 1025.39 126.225 1021.11 126.225 1015.84C126.225 1010.57 122.018 1006.3 116.828 1006.3C111.639 1006.3 107.432 1010.57 107.432 1015.84C107.432 1021.11 111.639 1025.39 116.828 1025.39Z" fill="#646C80"/>
<path d="M694.218 1384V1032.41C694.218 1023.3 686.877 1015.84 677.905 1015.84H475.561C466.589 1015.84 459.248 1008.39 459.248 999.273V627.995C459.248 618.882 451.907 611.426 442.935 611.426H302.919C293.946 611.426 286.606 603.97 286.606 594.857V378.512C286.606 369.399 279.265 361.943 270.293 361.943H88.0914C79.1193 361.943 71.7785 354.487 71.7785 345.374V155.108C71.7785 145.995 64.4377 138.539 55.4657 138.539H6.27916C-2.69291 138.539 -10.0337 131.083 -10.0337 121.97V-20.3311" stroke="#646C76" stroke-width="4.5" stroke-miterlimit="10"/>
<path d="M647.818 1028.45C654.672 1028.45 660.229 1022.8 660.229 1015.84C660.229 1008.88 654.672 1003.24 647.818 1003.24C640.964 1003.24 635.407 1008.88 635.407 1015.84C635.407 1022.8 640.964 1028.45 647.818 1028.45Z" fill="#646C76"/>
<path d="M703.585 1282.53C704.81 1277.26 701.597 1271.98 696.41 1270.74C691.222 1269.49 686.025 1272.76 684.8 1278.03C683.576 1283.3 686.789 1288.57 691.976 1289.82C697.163 1291.06 702.361 1287.8 703.585 1282.53Z" fill="#646C76"/>
<path d="M464.389 842.681C467.231 839.795 467.231 835.117 464.389 832.231C461.548 829.345 456.942 829.345 454.1 832.231C451.259 835.117 451.259 839.796 454.1 842.681C456.942 845.567 461.548 845.567 464.389 842.681Z" fill="#646C76"/>
<path d="M373.049 681.785C375.89 678.899 375.89 674.22 373.049 671.334C370.208 668.448 365.601 668.448 362.76 671.334C359.919 674.22 359.919 678.899 362.76 681.785C365.601 684.671 370.208 684.671 373.049 681.785Z" fill="#96A0AA"/>
<path d="M71.7789 264.391C76.6259 264.391 80.5552 260.4 80.5552 255.477C80.5552 250.553 76.6259 246.562 71.7789 246.562C66.9319 246.562 63.0026 250.553 63.0026 255.477C63.0026 260.4 66.9319 264.391 71.7789 264.391Z" fill="#646C76"/>
<path d="M287.194 468.767C292.963 468.767 297.64 464.016 297.64 458.156C297.64 452.296 292.963 447.545 287.194 447.545C281.424 447.545 276.747 452.296 276.747 458.156C276.747 464.016 281.424 468.767 287.194 468.767Z" fill="#646C76"/>
<path d="M77.8277 754.821C83.5973 754.821 88.2745 750.071 88.2745 744.21C88.2745 738.35 83.5973 733.6 77.8277 733.6C72.0582 733.6 67.381 738.35 67.381 744.21C67.381 750.071 72.0582 754.821 77.8277 754.821Z" fill="#96A0AA"/>
<path d="M175.75 138.54C181.52 138.54 186.197 133.789 186.197 127.929C186.197 122.069 181.52 117.318 175.75 117.318C169.981 117.318 165.303 122.069 165.303 127.929C165.303 133.789 169.981 138.54 175.75 138.54Z" fill="#646C80"/>
<path d="M-84.5372 854.865H183.261C192.233 854.865 199.574 862.321 199.574 871.434V1273.57C199.574 1282.68 192.233 1290.14 183.261 1290.14H-109" stroke="#646C76" stroke-width="6" stroke-linecap="round" stroke-linejoin="round"/>
<path d="M41.2152 865.476C46.9848 865.476 51.6619 860.725 51.6619 854.865C51.6619 849.005 46.9848 844.254 41.2152 844.254C35.4456 844.254 30.7684 849.005 30.7684 854.865C30.7684 860.725 35.4456 865.476 41.2152 865.476Z" fill="#646C76"/>
<path d="M208.11 1150.29C209.218 1145.49 206.29 1140.7 201.571 1139.57C196.853 1138.45 192.129 1141.42 191.022 1146.21C189.914 1151.01 192.842 1155.8 197.56 1156.93C202.279 1158.05 207.002 1155.08 208.11 1150.29Z" fill="#646C76"/>
</g>
</svg>
