<svg width="269" height="852" viewBox="0 0 269 852" fill="none" xmlns="http://www.w3.org/2000/svg">
<g opacity="0.1">
<path d="M118.647 -2.75098V152.414C118.647 158.14 114.035 162.826 108.397 162.826H-43.6189C-49.2567 162.826 -53.8694 167.511 -53.8694 173.237V459.733C-53.8694 465.459 -58.4822 470.145 -64.12 470.145H-221.983" stroke="#96A0AA" stroke-width="6" stroke-linecap="round" stroke-linejoin="round"/>
<path d="M161.093 869.997V774.806C161.093 769.08 156.481 764.395 150.843 764.395H29.3654C23.7276 764.395 19.1149 759.71 19.1149 753.983V481.214C19.1149 475.488 23.7276 470.802 29.3654 470.802H148.916C154.553 470.802 159.166 466.117 159.166 460.391V270.231C159.166 264.504 154.553 259.819 148.916 259.819H36.9262C31.2884 259.819 26.6757 255.134 26.6757 249.408V-22" stroke="#25A0D5" stroke-width="4.5" stroke-miterlimit="10"/>
<path d="M99.1185 869.997V694.005C99.1185 688.278 94.5057 683.593 88.8679 683.593H-90.8776C-96.5154 683.593 -101.128 678.908 -101.128 673.182V139.254C-101.128 133.527 -96.5154 128.842 -90.8776 128.842H-74.4521C-68.8143 128.842 -64.2016 124.157 -64.2016 118.431V-22" stroke="#646C80" stroke-width="4.5" stroke-miterlimit="10"/>
<path d="M192.985 864.654V605.457C192.985 599.73 188.372 595.045 182.734 595.045H66.9276C61.2898 595.045 56.677 590.36 56.677 584.634V329.268C56.677 323.542 61.2898 318.856 66.9276 318.856H116.614C122.252 318.856 126.865 314.171 126.865 308.445V226.894C126.865 221.167 122.252 216.482 116.614 216.482H75.4396C69.8018 216.482 65.1891 211.797 65.1891 206.071V-6.50781" stroke="#96A0AA" stroke-width="6" stroke-linecap="round" stroke-linejoin="round"/>
<path d="M19.1149 624.459C23.422 624.459 26.9135 620.913 26.9135 616.538C26.9135 612.164 23.422 608.617 19.1149 608.617C14.8079 608.617 11.3163 612.164 11.3163 616.538C11.3163 620.913 14.8079 624.459 19.1149 624.459Z" fill="#25A0D5"/>
<path d="M164.065 405.909C166.771 403.161 166.771 398.704 164.065 395.956C161.359 393.207 156.972 393.207 154.266 395.956C151.56 398.704 151.56 403.161 154.266 405.909C156.972 408.658 161.359 408.658 164.065 405.909Z" fill="#25A0D5"/>
<path d="M83.806 472.16C84.609 468.68 82.4824 465.198 79.0563 464.382C75.6301 463.567 72.2017 465.727 71.3987 469.207C70.5958 472.687 72.7223 476.169 76.1484 476.985C79.5746 477.8 83.003 475.64 83.806 472.16Z" fill="#25A0D5"/>
<path d="M26.9137 130.508C29.9843 130.508 32.4736 127.98 32.4736 124.861C32.4736 121.742 29.9843 119.214 26.9137 119.214C23.843 119.214 21.3538 121.742 21.3538 124.861C21.3538 127.98 23.843 130.508 26.9137 130.508Z" fill="#25A0D5"/>
<path d="M90.1024 265.816C93.173 265.816 95.6623 263.288 95.6623 260.169C95.6623 257.05 93.173 254.521 90.1024 254.521C87.0317 254.521 84.5425 257.05 84.5425 260.169C84.5425 263.288 87.0317 265.816 90.1024 265.816Z" fill="#25A0D5"/>
<path d="M99.1183 723.973C102.164 723.973 104.633 721.466 104.633 718.372C104.633 715.278 102.164 712.771 99.1183 712.771C96.0726 712.771 93.6035 715.278 93.6035 718.372C93.6035 721.466 96.0726 723.973 99.1183 723.973Z" fill="#646C80"/>
<path d="M71.3711 765.504C71.8726 762.029 69.5057 758.799 66.0844 758.289C62.6631 757.78 59.4829 760.184 58.9814 763.659C58.4798 767.134 60.8468 770.364 64.2681 770.874C67.6894 771.383 70.8695 768.979 71.3711 765.504Z" fill="#25A0D5"/>
<path d="M95.2508 321.996C96.8681 320.353 96.8681 317.69 95.2508 316.047C93.6336 314.405 91.0115 314.405 89.3942 316.047C87.777 317.69 87.777 320.353 89.3942 321.996C91.0115 323.638 93.6336 323.638 95.2508 321.996Z" fill="#96A0AA"/>
<path d="M192.817 714.878C196.175 714.878 198.897 712.113 198.897 708.702C198.897 705.291 196.175 702.525 192.817 702.525C189.459 702.525 186.736 705.291 186.736 708.702C186.736 712.113 189.459 714.878 192.817 714.878Z" fill="#96A0AA"/>
<path d="M98.1959 221.334C100.802 221.334 102.915 219.188 102.915 216.541C102.915 213.893 100.802 211.747 98.1959 211.747C95.5895 211.747 93.4766 213.893 93.4766 216.541C93.4766 219.188 95.5895 221.334 98.1959 221.334Z" fill="#96A0AA"/>
<path d="M123.603 95.9191C124.246 93.1358 122.546 90.3498 119.805 89.6965C117.065 89.0431 114.322 90.7698 113.679 93.5531C113.036 96.3365 114.736 99.1224 117.476 99.7757C120.216 100.429 122.959 98.7024 123.603 95.9191Z" fill="#96A0AA"/>
<path d="M261.721 872.176V651.247C261.721 645.521 257.108 640.836 251.47 640.836H124.322C118.684 640.836 114.072 636.151 114.072 630.424V397.123C114.072 391.397 109.459 386.711 103.821 386.711H15.8385C10.2007 386.711 5.58798 382.026 5.58798 376.3V240.354C5.58798 234.628 0.975233 229.943 -4.66257 229.943H-119.153C-124.791 229.943 -129.404 225.258 -129.404 219.531V99.9738C-129.404 94.2475 -134.016 89.5623 -139.654 89.5623H-170.562C-176.2 89.5623 -180.812 84.8771 -180.812 79.1508V-10.2676" stroke="#646C76" stroke-width="4.5" stroke-miterlimit="10"/>
<path d="M232.564 648.757C236.871 648.757 240.363 645.211 240.363 640.836C240.363 636.461 236.871 632.915 232.564 632.915C228.257 632.915 224.765 636.461 224.765 640.836C224.765 645.211 228.257 648.757 232.564 648.757Z" fill="#646C76"/>
<path d="M267.607 808.415C268.376 805.104 266.357 801.787 263.098 801.005C259.838 800.224 256.572 802.275 255.803 805.585C255.033 808.896 257.052 812.214 260.312 812.995C263.571 813.776 266.837 811.726 267.607 808.415Z" fill="#646C76"/>
<path d="M117.302 532.026C119.088 530.212 119.088 527.272 117.302 525.459C115.517 523.645 112.622 523.645 110.837 525.459C109.052 527.272 109.052 530.212 110.837 532.026C112.622 533.839 115.517 533.839 117.302 532.026Z" fill="#646C76"/>
<path d="M59.9067 430.923C61.6921 429.11 61.6921 426.17 59.9067 424.356C58.1214 422.543 55.2267 422.543 53.4413 424.356C51.6559 426.17 51.6559 429.11 53.4413 430.923C55.2267 432.737 58.1214 432.737 59.9067 430.923Z" fill="#96A0AA"/>
<path d="M5.95738 297.068C9.58283 297.068 12.5218 294.083 12.5218 290.401C12.5218 286.719 9.58283 283.733 5.95738 283.733C2.33193 283.733 -0.607056 286.719 -0.607056 290.401C-0.607056 294.083 2.33193 297.068 5.95738 297.068Z" fill="#646C76"/>
</g>
</svg>
