<svg width="570" height="959" viewBox="0 0 570 959" fill="none" xmlns="http://www.w3.org/2000/svg">
<g opacity="0.15">
<path d="M501.689 20.6445V187.059C501.689 193.2 495.047 198.225 486.93 198.225H268.05C259.933 198.225 253.291 203.25 253.291 209.391V516.657C253.291 522.799 246.65 527.824 238.532 527.824H11.2341" stroke="#96A0AA" stroke-width="6" stroke-linecap="round" stroke-linejoin="round"/>
<path d="M258.215 398.074C260.795 396.122 260.795 392.958 258.215 391.006C255.635 389.054 251.453 389.054 248.873 391.006C246.293 392.958 246.293 396.122 248.873 398.074C251.453 400.026 255.635 400.026 258.215 398.074Z" fill="#96A0AA"/>
<path d="M562.804 956.664V854.573C562.804 848.431 556.163 843.406 548.045 843.406H373.137C365.019 843.406 358.377 838.381 358.377 832.24V539.695C358.377 533.554 365.019 528.529 373.137 528.529H545.27C553.388 528.529 560.03 523.504 560.03 517.363V313.417C560.03 307.275 553.388 302.25 545.27 302.25H384.023C375.905 302.25 369.264 297.225 369.264 291.084V0" stroke="#25A0D5" stroke-width="4.5" stroke-miterlimit="10"/>
<path d="M473.57 956.664V767.913C473.57 761.771 466.928 756.747 458.811 756.747H200.005C191.887 756.747 185.246 751.722 185.246 745.58V172.944C185.246 166.803 191.887 161.778 200.005 161.778H223.655C231.773 161.778 238.414 156.753 238.414 150.611V0" stroke="#646C80" stroke-width="4.5" stroke-miterlimit="10"/>
<path d="M193.8 959V819.336C193.8 813.194 187.159 808.169 179.041 808.169H90.049C81.9314 808.169 75.2897 803.145 75.2897 797.003V692.799C75.2897 686.657 81.9314 681.633 90.049 681.633H285.207C293.325 681.633 299.966 676.608 299.966 670.466V475.725C299.966 469.584 293.325 464.559 285.207 464.559H122.791C114.673 464.559 108.032 459.534 108.032 453.393V305.493C108.032 299.351 101.39 294.326 93.2724 294.326H0" stroke="#25A0D5" stroke-width="4.5" stroke-miterlimit="10"/>
<path d="M608.723 950.933V672.945C608.723 666.804 602.081 661.779 593.964 661.779H427.22C419.103 661.779 412.461 656.754 412.461 650.613V376.734C412.461 370.592 419.103 365.568 427.22 365.568H498.761C506.879 365.568 513.52 360.543 513.52 354.401V266.938C513.52 260.796 506.879 255.771 498.761 255.771H439.476C431.359 255.771 424.717 250.746 424.717 244.605V16.6152" stroke="#96A0AA" stroke-width="6" stroke-linecap="round" stroke-linejoin="round"/>
<path d="M358.377 693.327C364.579 693.327 369.606 689.523 369.606 684.831C369.606 680.139 364.579 676.336 358.377 676.336C352.176 676.336 347.148 680.139 347.148 684.831C347.148 689.523 352.176 693.327 358.377 693.327Z" fill="#25A0D5"/>
<path d="M567.083 458.932C570.98 455.984 570.98 451.205 567.083 448.257C563.187 445.309 556.87 445.309 552.973 448.257C549.077 451.205 549.077 455.984 552.973 458.932C556.87 461.88 563.187 461.88 567.083 458.932Z" fill="#25A0D5"/>
<path d="M451.522 529.984C452.679 526.252 449.617 522.517 444.684 521.643C439.75 520.768 434.814 523.085 433.658 526.817C432.502 530.549 435.564 534.284 440.497 535.159C445.43 536.033 450.366 533.717 451.522 529.984Z" fill="#25A0D5"/>
<path d="M369.606 163.564C374.027 163.564 377.612 160.853 377.612 157.508C377.612 154.163 374.027 151.451 369.606 151.451C365.185 151.451 361.601 154.163 361.601 157.508C361.601 160.853 365.185 163.564 369.606 163.564Z" fill="#25A0D5"/>
<path d="M460.588 308.682C465.009 308.682 468.594 305.97 468.594 302.625C468.594 299.28 465.009 296.568 460.588 296.568C456.167 296.568 452.583 299.28 452.583 302.625C452.583 305.97 456.167 308.682 460.588 308.682Z" fill="#25A0D5"/>
<path d="M473.57 800.055C477.955 800.055 481.51 797.365 481.51 794.048C481.51 790.73 477.955 788.04 473.57 788.04C469.185 788.04 465.63 790.73 465.63 794.048C465.63 797.365 469.185 800.055 473.57 800.055Z" fill="#646C80"/>
<path d="M299.966 621.304C304.945 621.304 308.981 618.25 308.981 614.483C308.981 610.717 304.945 607.663 299.966 607.663C294.987 607.663 290.951 610.717 290.951 614.483C290.951 618.25 294.987 621.304 299.966 621.304Z" fill="#25A0D5"/>
<path d="M433.618 844.596C434.34 840.869 430.932 837.404 426.006 836.858C421.08 836.312 416.501 838.89 415.779 842.617C415.057 846.344 418.465 849.808 423.391 850.355C428.317 850.901 432.896 848.322 433.618 844.596Z" fill="#25A0D5"/>
<path d="M197.176 869.901C201.806 868.514 204.072 864.551 202.24 861.048C200.407 857.546 195.168 855.831 190.539 857.218C185.91 858.604 183.643 862.568 185.476 866.07C187.309 869.572 192.547 871.287 197.176 869.901Z" fill="#25A0D5"/>
<path d="M468.001 368.935C470.33 367.173 470.33 364.317 468.001 362.555C465.673 360.793 461.897 360.793 459.569 362.555C457.24 364.317 457.24 367.173 459.569 368.935C461.897 370.697 465.673 370.697 468.001 368.935Z" fill="#96A0AA"/>
<path d="M472.242 260.975C475.995 260.975 479.037 258.673 479.037 255.834C479.037 252.995 475.995 250.693 472.242 250.693C468.489 250.693 465.447 252.995 465.447 255.834C465.447 258.673 468.489 260.975 472.242 260.975Z" fill="#96A0AA"/>
<path d="M311.195 205.608C316.415 205.608 320.647 202.406 320.647 198.457C320.647 194.508 316.415 191.306 311.195 191.306C305.975 191.306 301.743 194.508 301.743 198.457C301.743 202.406 305.975 205.608 311.195 205.608Z" fill="#96A0AA"/>
<path d="M508.823 126.467C509.749 123.482 507.302 120.494 503.356 119.794C499.41 119.093 495.461 120.945 494.535 123.93C493.609 126.915 496.056 129.903 500.002 130.604C503.948 131.304 507.897 129.453 508.823 126.467Z" fill="#96A0AA"/>
<path d="M185.293 323.234C189.988 323.234 193.794 320.355 193.794 316.802C193.794 313.25 189.988 310.371 185.293 310.371C180.598 310.371 176.792 313.25 176.792 316.802C176.792 320.355 180.598 323.234 185.293 323.234Z" fill="#646C80"/>
<path d="M108.037 406.249C112.204 406.249 115.582 403.693 115.582 400.541C115.582 397.388 112.204 394.833 108.037 394.833C103.87 394.833 100.492 397.388 100.492 400.541C100.492 403.693 103.87 406.249 108.037 406.249Z" fill="#25A0D5"/>
<path d="M185.293 717.321C189.988 717.321 193.794 714.441 193.794 710.889C193.794 707.337 189.988 704.457 185.293 704.457C180.598 704.457 176.792 707.337 176.792 710.889C176.792 714.441 180.598 717.321 185.293 717.321Z" fill="#646C80"/>
<path d="M707.692 959V722.055C707.692 715.913 701.051 710.889 692.933 710.889H509.86C501.742 710.889 495.101 705.864 495.101 699.722V449.507C495.101 443.366 488.459 438.341 480.341 438.341H353.66C345.542 438.341 338.901 433.316 338.901 427.174V281.373C338.901 275.232 332.259 270.207 324.142 270.207H159.293C151.175 270.207 144.534 265.182 144.534 259.041V130.816C144.534 124.674 137.892 119.649 129.775 119.649H85.2725C77.155 119.649 70.5133 114.624 70.5133 108.483V12.582" stroke="#646C76" stroke-width="4.5" stroke-miterlimit="10"/>
<path d="M499.752 594.19C502.323 592.245 502.323 589.092 499.752 587.147C497.182 585.202 493.014 585.202 490.443 587.147C487.873 589.092 487.873 592.245 490.443 594.19C493.014 596.135 497.182 596.135 499.752 594.19Z" fill="#646C76"/>
<path d="M417.111 485.758C419.682 483.813 419.682 480.66 417.111 478.715C414.541 476.77 410.373 476.77 407.802 478.715C405.232 480.66 405.232 483.813 407.802 485.758C410.373 487.703 414.541 487.703 417.111 485.758Z" fill="#96A0AA"/>
<path d="M144.534 204.464C148.919 204.464 152.474 201.775 152.474 198.457C152.474 195.139 148.919 192.449 144.534 192.449C140.148 192.449 136.593 195.139 136.593 198.457C136.593 201.775 140.148 204.464 144.534 204.464Z" fill="#646C76"/>
<path d="M70.5133 86.5169C73.151 86.5169 75.2894 84.8991 75.2894 82.9035C75.2894 80.9078 73.151 79.29 70.5133 79.29C67.8755 79.29 65.7372 80.9078 65.7372 82.9035C65.7372 84.8991 67.8755 86.5169 70.5133 86.5169Z" fill="#646C76"/>
<path d="M339.432 342.199C344.652 342.199 348.884 338.997 348.884 335.048C348.884 331.099 344.652 327.897 339.432 327.897C334.212 327.897 329.981 331.099 329.981 335.048C329.981 338.997 334.212 342.199 339.432 342.199Z" fill="#646C76"/>
<path d="M150.007 534.979C155.227 534.979 159.459 531.777 159.459 527.828C159.459 523.878 155.227 520.677 150.007 520.677C144.787 520.677 140.555 523.878 140.555 527.828C140.555 531.777 144.787 534.979 150.007 534.979Z" fill="#96A0AA"/>
<path d="M238.603 119.649C243.823 119.649 248.055 116.448 248.055 112.499C248.055 108.549 243.823 105.348 238.603 105.348C233.383 105.348 229.151 108.549 229.151 112.499C229.151 116.448 233.383 119.649 238.603 119.649Z" fill="#646C80"/>
<path d="M3.10522 602.401H245.398C253.516 602.401 260.158 607.426 260.158 613.567V884.579C260.158 890.72 253.516 895.745 245.398 895.745H162.5" stroke="#646C76" stroke-width="6" stroke-linecap="round" stroke-linejoin="round"/>
<path d="M116.881 609.552C122.101 609.552 126.333 606.35 126.333 602.401C126.333 598.452 122.101 595.25 116.881 595.25C111.661 595.25 107.429 598.452 107.429 602.401C107.429 606.35 111.661 609.552 116.881 609.552Z" fill="#646C76"/>
<path d="M267.881 801.495C268.883 798.265 266.234 795.032 261.965 794.273C257.696 793.515 253.422 795.519 252.42 798.749C251.418 801.979 254.066 805.212 258.336 805.97C262.605 806.729 266.879 804.725 267.881 801.495Z" fill="#646C76"/>
</g>
</svg>
