<svg width="757" height="1143" viewBox="0 0 757 1143" fill="none" xmlns="http://www.w3.org/2000/svg">
<g opacity="0.2">
<path d="M523.249 -1.81348V201.215C523.249 208.708 516.078 214.838 507.313 214.838H270.976C262.211 214.838 255.039 220.969 255.039 228.461V603.332C255.039 610.825 247.868 616.956 239.103 616.956H-6.32422" stroke="#96A0AA" stroke-width="6" stroke-linecap="round" stroke-linejoin="round"/>
<path d="M260.355 458.658C263.141 456.277 263.141 452.416 260.355 450.035C257.57 447.654 253.053 447.654 250.268 450.035C247.482 452.416 247.482 456.277 250.268 458.658C253.053 461.04 257.57 461.04 260.355 458.658Z" fill="#96A0AA"/>
<path d="M589.238 1140.15V1015.6C589.238 1008.1 582.066 1001.97 573.301 1001.97H384.442C375.677 1001.97 368.506 995.843 368.506 988.35V631.44C368.506 623.947 375.677 617.816 384.442 617.816H570.305C579.07 617.816 586.242 611.686 586.242 604.193V355.375C586.242 347.882 579.07 341.752 570.305 341.752H396.197C387.432 341.752 380.261 335.621 380.261 328.128V-27" stroke="#25A0D5" stroke-width="4.5" stroke-miterlimit="10"/>
<path d="M492.887 1140.15V909.87C492.887 902.377 485.716 896.247 476.951 896.247H197.503C188.738 896.247 181.566 890.116 181.566 882.623V183.995C181.566 176.503 188.738 170.372 197.503 170.372H223.039C231.804 170.372 238.976 164.242 238.976 156.749V-27" stroke="#646C80" stroke-width="4.5" stroke-miterlimit="10"/>
<path d="M190.804 1143V972.607C190.804 965.115 183.632 958.984 174.867 958.984H78.7771C70.0121 958.984 62.8407 952.854 62.8407 945.361V818.23C62.8407 810.737 70.0121 804.607 78.7771 804.607H289.501C298.266 804.607 305.438 798.476 305.438 790.984V553.396C305.438 545.903 298.266 539.773 289.501 539.773H114.13C105.365 539.773 98.1941 533.642 98.1941 526.149V345.708C98.1941 338.215 91.0227 332.085 82.2576 332.085H-18.4541" stroke="#25A0D5" stroke-width="4.5" stroke-miterlimit="10"/>
<path d="M638.82 1133.16V794.007C638.82 786.514 631.649 780.384 622.884 780.384H442.841C434.076 780.384 426.904 774.253 426.904 766.761V432.623C426.904 425.13 434.076 419 442.841 419H520.088C528.853 419 536.024 412.869 536.024 405.376V298.669C536.024 291.176 528.853 285.046 520.088 285.046H456.074C447.309 285.046 440.138 278.915 440.138 271.423V-6.72949" stroke="#96A0AA" stroke-width="6" stroke-linecap="round" stroke-linejoin="round"/>
<path d="M368.506 818.873C375.202 818.873 380.631 814.232 380.631 808.508C380.631 802.784 375.202 798.144 368.506 798.144C361.81 798.144 356.382 802.784 356.382 808.508C356.382 814.232 361.81 818.873 368.506 818.873Z" fill="#25A0D5"/>
<path d="M593.859 532.906C598.066 529.31 598.066 523.479 593.859 519.883C589.652 516.286 582.831 516.286 578.624 519.883C574.416 523.479 574.416 529.31 578.624 532.906C582.831 536.503 589.652 536.503 593.859 532.906Z" fill="#25A0D5"/>
<path d="M469.081 619.591C470.329 615.038 467.023 610.482 461.697 609.414C456.37 608.347 451.04 611.173 449.792 615.727C448.543 620.28 451.849 624.837 457.176 625.904C462.503 626.971 467.833 624.145 469.081 619.591Z" fill="#25A0D5"/>
<path d="M380.631 172.552C385.405 172.552 389.275 169.244 389.275 165.163C389.275 161.082 385.405 157.773 380.631 157.773C375.857 157.773 371.987 161.082 371.987 165.163C371.987 169.244 375.857 172.552 380.631 172.552Z" fill="#25A0D5"/>
<path d="M478.869 349.598C483.643 349.598 487.513 346.289 487.513 342.209C487.513 338.128 483.643 334.819 478.869 334.819C474.096 334.819 470.226 338.128 470.226 342.209C470.226 346.289 474.096 349.598 478.869 349.598Z" fill="#25A0D5"/>
<path d="M492.887 949.083C497.622 949.083 501.461 945.802 501.461 941.754C501.461 937.706 497.622 934.425 492.887 934.425C488.152 934.425 484.313 937.706 484.313 941.754C484.313 945.802 488.152 949.083 492.887 949.083Z" fill="#646C80"/>
<path d="M305.437 731.003C310.813 731.003 315.171 727.278 315.171 722.682C315.171 718.087 310.813 714.361 305.437 714.361C300.061 714.361 295.703 718.087 295.703 722.682C295.703 727.278 300.061 731.003 305.437 731.003Z" fill="#25A0D5"/>
<path d="M449.749 1003.42C450.529 998.877 446.849 994.65 441.53 993.984C436.211 993.317 431.267 996.463 430.487 1001.01C429.707 1005.56 433.387 1009.78 438.706 1010.45C444.025 1011.12 448.969 1007.97 449.749 1003.42Z" fill="#25A0D5"/>
<path d="M194.448 1034.3C199.447 1032.61 201.895 1027.77 199.916 1023.5C197.937 1019.22 192.28 1017.13 187.282 1018.82C182.283 1020.52 179.836 1025.35 181.815 1029.62C183.794 1033.9 189.45 1035.99 194.448 1034.3Z" fill="#25A0D5"/>
<path d="M486.874 423.108C489.388 420.958 489.388 417.473 486.874 415.324C484.359 413.175 480.283 413.175 477.768 415.324C475.254 417.473 475.254 420.958 477.768 423.108C480.283 425.257 484.359 425.257 486.874 423.108Z" fill="#96A0AA"/>
<path d="M638.559 937.181C643.78 937.181 648.012 933.563 648.012 929.1C648.012 924.637 643.78 921.019 638.559 921.019C633.338 921.019 629.105 924.637 629.105 929.1C629.105 933.563 633.338 937.181 638.559 937.181Z" fill="#96A0AA"/>
<path d="M491.453 291.395C495.506 291.395 498.79 288.587 498.79 285.123C498.79 281.659 495.506 278.851 491.453 278.851C487.401 278.851 484.116 281.659 484.116 285.123C484.116 288.587 487.401 291.395 491.453 291.395Z" fill="#96A0AA"/>
<path d="M317.561 223.845C323.198 223.845 327.767 219.939 327.767 215.121C327.767 210.302 323.198 206.396 317.561 206.396C311.925 206.396 307.355 210.302 307.355 215.121C307.355 219.939 311.925 223.845 317.561 223.845Z" fill="#96A0AA"/>
<path d="M530.952 127.293C531.952 123.651 529.309 120.005 525.049 119.15C520.789 118.296 516.525 120.555 515.525 124.197C514.525 127.839 517.168 131.484 521.428 132.339C525.688 133.194 529.952 130.934 530.952 127.293Z" fill="#96A0AA"/>
<path d="M181.617 367.353C186.687 367.353 190.796 363.84 190.796 359.506C190.796 355.172 186.687 351.659 181.617 351.659C176.547 351.659 172.438 355.172 172.438 359.506C172.438 363.84 176.547 367.353 181.617 367.353Z" fill="#646C80"/>
<path d="M98.1994 468.631C102.699 468.631 106.346 465.513 106.346 461.667C106.346 457.821 102.699 454.703 98.1994 454.703C93.7001 454.703 90.0527 457.821 90.0527 461.667C90.0527 465.513 93.7001 468.631 98.1994 468.631Z" fill="#25A0D5"/>
<path d="M181.617 848.146C186.687 848.146 190.796 844.633 190.796 840.299C190.796 835.965 186.687 832.452 181.617 832.452C176.547 832.452 172.438 835.965 172.438 840.299C172.438 844.633 176.547 848.146 181.617 848.146Z" fill="#646C80"/>
<path d="M745.683 1143V853.922C745.683 846.429 738.512 840.299 729.747 840.299H532.071C523.306 840.299 516.135 834.169 516.135 826.676V521.408C516.135 513.916 508.964 507.785 500.198 507.785H363.413C354.648 507.785 347.477 501.655 347.477 494.162V316.282C347.477 308.789 340.305 302.659 331.54 302.659H153.543C144.778 302.659 137.607 296.528 137.607 289.035V132.598C137.607 125.105 130.436 118.975 121.67 118.975H73.619C64.854 118.975 57.6826 112.844 57.6826 105.352V-11.6494" stroke="#646C76" stroke-width="4.5" stroke-miterlimit="10"/>
<path d="M700.353 850.664C707.049 850.664 712.477 846.023 712.477 840.299C712.477 834.575 707.049 829.935 700.353 829.935C693.657 829.935 688.229 834.575 688.229 840.299C688.229 846.023 693.657 850.664 700.353 850.664Z" fill="#646C76"/>
<path d="M754.834 1059.57C756.03 1055.24 752.891 1050.9 747.824 1049.88C742.756 1048.85 737.678 1051.54 736.482 1055.87C735.286 1060.2 738.425 1064.54 743.492 1065.56C748.56 1066.59 753.638 1063.9 754.834 1059.57Z" fill="#646C76"/>
<path d="M521.158 697.924C523.933 695.551 523.933 691.704 521.158 689.332C518.382 686.959 513.882 686.959 511.106 689.332C508.33 691.704 508.33 695.551 511.106 697.924C513.882 700.297 518.382 700.297 521.158 697.924Z" fill="#646C76"/>
<path d="M431.925 565.635C434.701 563.262 434.701 559.415 431.925 557.043C429.15 554.67 424.649 554.67 421.873 557.043C419.098 559.415 419.098 563.262 421.873 565.635C424.649 568.008 429.15 568.008 431.925 565.635Z" fill="#96A0AA"/>
<path d="M137.607 222.451C142.342 222.451 146.181 219.17 146.181 215.122C146.181 211.074 142.342 207.793 137.607 207.793C132.872 207.793 129.033 211.074 129.033 215.122C129.033 219.17 132.872 222.451 137.607 222.451Z" fill="#646C76"/>
<path d="M57.6824 78.5523C60.5306 78.5523 62.8394 76.5785 62.8394 74.1438C62.8394 71.7091 60.5306 69.7354 57.6824 69.7354C54.8343 69.7354 52.5254 71.7091 52.5254 74.1438C52.5254 76.5785 54.8343 78.5523 57.6824 78.5523Z" fill="#646C76"/>
<path d="M348.051 390.49C353.688 390.49 358.257 386.584 358.257 381.765C358.257 376.947 353.688 373.041 348.051 373.041C342.415 373.041 337.846 376.947 337.846 381.765C337.846 386.584 342.415 390.49 348.051 390.49Z" fill="#646C76"/>
<path d="M143.517 625.685C149.154 625.685 153.723 621.779 153.723 616.961C153.723 612.142 149.154 608.236 143.517 608.236C137.881 608.236 133.312 612.142 133.312 616.961C133.312 621.779 137.881 625.685 143.517 625.685Z" fill="#96A0AA"/>
<path d="M239.179 118.975C244.816 118.975 249.385 115.069 249.385 110.251C249.385 105.432 244.816 101.526 239.179 101.526C233.543 101.526 228.974 105.432 228.974 110.251C228.974 115.069 233.543 118.975 239.179 118.975Z" fill="#646C80"/>
<path d="M-15.1018 707.941H246.517C255.282 707.941 262.453 714.072 262.453 721.565V1052.2C262.453 1059.7 255.282 1065.83 246.517 1065.83H-39" stroke="#646C76" stroke-width="6" stroke-linecap="round" stroke-linejoin="round"/>
<path d="M107.749 716.665C113.385 716.665 117.954 712.759 117.954 707.941C117.954 703.123 113.385 699.217 107.749 699.217C102.112 699.217 97.543 703.123 97.543 707.941C97.543 712.759 102.112 716.665 107.749 716.665Z" fill="#646C76"/>
<path d="M270.792 950.84C271.874 946.9 269.014 942.955 264.404 942.03C259.794 941.105 255.18 943.55 254.098 947.491C253.016 951.431 255.876 955.376 260.486 956.301C265.095 957.226 269.71 954.781 270.792 950.84Z" fill="#646C76"/>
</g>
</svg>
