<svg width="25" height="24" viewBox="0 0 25 24" fill="none" xmlns="http://www.w3.org/2000/svg">
<path d="M14.5 8H19.5M15.5 12H19.5M17.5 16H19.5M17.5 21H7.5C3.5 21 2.5 20 2.5 16V8C2.5 4 3.5 3 7.5 3H17.5C21.5 3 22.5 4 22.5 8V16C22.5 20 21.5 21 17.5 21Z" stroke="#25A0D5" stroke-width="1.5" stroke-linecap="round" stroke-linejoin="round"/>
<path d="M12.5 16.3319C12.4327 15.6299 12.1219 14.9737 11.6214 14.4768C11.121 13.98 10.4624 13.674 9.76 13.6119C9.25457 13.5619 8.74543 13.5619 8.24 13.6119C7.53826 13.6759 6.88078 13.9825 6.38069 14.479C5.8806 14.9754 5.56918 15.6306 5.5 16.3319M9 11.2919C9.48004 11.2919 9.94042 11.1012 10.2799 10.7617C10.6193 10.4223 10.81 9.96192 10.81 9.48187C10.81 9.00183 10.6193 8.54145 10.2799 8.20201C9.94042 7.86257 9.48004 7.67188 9 7.67188C8.51996 7.67188 8.05958 7.86257 7.72014 8.20201C7.3807 8.54145 7.19 9.00183 7.19 9.48187C7.19 9.96192 7.3807 10.4223 7.72014 10.7617C8.05958 11.1012 8.51996 11.2919 9 11.2919Z" stroke="#25A0D5" stroke-width="1.5" stroke-linecap="round" stroke-linejoin="round"/>
</svg>
