<svg width="34" height="34" viewBox="0 0 34 34" fill="none" xmlns="http://www.w3.org/2000/svg">
<g clip-path="url(#clip0_952_2831)">
<path d="M19.9883 17C19.9883 18.6503 18.6503 19.9883 17 19.9883C15.3497 19.9883 14.0117 18.6503 14.0117 17C14.0117 15.3497 15.3497 14.0117 17 14.0117C18.6503 14.0117 19.9883 15.3497 19.9883 17Z" fill="#25A0D5"/>
<path d="M22.0469 7.96875H11.9531C9.75601 7.96875 7.96875 9.75601 7.96875 11.9531V22.0469C7.96875 24.244 9.75601 26.0312 11.9531 26.0312H22.0469C24.244 26.0312 26.0312 24.244 26.0312 22.0469V11.9531C26.0312 9.75601 24.244 7.96875 22.0469 7.96875ZM17 21.9805C14.2537 21.9805 12.0195 19.7463 12.0195 17C12.0195 14.2537 14.2537 12.0195 17 12.0195C19.7463 12.0195 21.9805 14.2537 21.9805 17C21.9805 19.7463 19.7463 21.9805 17 21.9805ZM22.7109 12.2852C22.1608 12.2852 21.7148 11.8392 21.7148 11.2891C21.7148 10.7389 22.1608 10.293 22.7109 10.293C23.2611 10.293 23.707 10.7389 23.707 11.2891C23.707 11.8392 23.2611 12.2852 22.7109 12.2852Z" fill="#25A0D5"/>
<path d="M25.0352 0H8.96484C4.02173 0 0 4.02173 0 8.96484V25.0352C0 29.9783 4.02173 34 8.96484 34H25.0352C29.9783 34 34 29.9783 34 25.0352V8.96484C34 4.02173 29.9783 0 25.0352 0ZM28.0234 22.0469C28.0234 25.3423 25.3423 28.0234 22.0469 28.0234H11.9531C8.65771 28.0234 5.97656 25.3423 5.97656 22.0469V11.9531C5.97656 8.65771 8.65771 5.97656 11.9531 5.97656H22.0469C25.3423 5.97656 28.0234 8.65771 28.0234 11.9531V22.0469Z" fill="#25A0D5"/>
</g>
<defs>
<clipPath id="clip0_952_2831">
<rect width="34" height="34" fill="white"/>
</clipPath>
</defs>
</svg>
