<svg width="144" height="89" viewBox="0 0 144 89" fill="none" xmlns="http://www.w3.org/2000/svg">
<g clip-path="url(#clip0_44_334)">
<path opacity="0.48" d="M87.5146 19.6167V33.8047C87.5146 33.8266 87.5146 33.8504 87.5166 33.8723V19.5332C87.5146 19.559 87.5146 19.5889 87.5146 19.6167Z" fill="#231F20"/>
<path d="M37.5942 10.2743C36.5673 9.91455 35.461 9.71777 34.3129 9.71777C31.7784 9.71777 29.4664 10.6679 27.7145 12.2342C25.6786 14.0489 24.3995 16.6945 24.3995 19.6363V33.8243C24.3995 35.5953 22.9892 37.0443 21.2354 37.1079V43.7447C23.7222 43.7129 25.9885 42.7688 27.7145 41.2283C29.4664 42.7946 31.7784 43.7447 34.3129 43.7447C36.8474 43.7447 39.1594 42.7946 40.9093 41.2283C41.0503 41.1031 41.1873 40.9719 41.3204 40.8388C43.114 39.0439 44.2243 36.5633 44.2243 33.8243V19.6363C44.2243 15.3111 41.4555 11.6299 37.5942 10.2743ZM37.5942 33.8223C37.5942 35.633 36.1224 37.1079 34.3129 37.1079C32.5034 37.1079 31.0296 35.633 31.0296 33.8223V19.6343C31.0296 17.8235 32.5014 16.3506 34.3129 16.3506C36.1244 16.3506 37.5942 17.8235 37.5942 19.6343V33.8223Z" fill="#25A0D5"/>
<path d="M78.3464 57.7503C79.3057 57.4143 80.3366 57.2295 81.4092 57.2295C83.7748 57.2295 85.9299 58.116 87.5666 59.5769C89.4654 61.2704 90.6592 63.7391 90.6592 66.4821V79.718C90.6592 81.3698 91.9741 82.7214 93.6128 82.783V88.9746C91.2928 88.9448 89.1774 88.0642 87.5666 86.6272C85.9319 88.0881 83.7748 88.9746 81.4092 88.9746C79.0435 88.9746 76.8884 88.0881 75.2537 86.6272C75.1227 86.5099 74.9935 86.3886 74.8704 86.2634C73.196 84.5878 72.1611 82.2742 72.1611 79.718V66.4821C72.1611 62.4471 74.7453 59.0124 78.3464 57.7483V57.7503ZM78.3464 79.72C78.3464 81.4095 79.7189 82.787 81.4092 82.787C83.0995 82.787 84.474 81.4115 84.474 79.72V66.4841C84.474 64.7946 83.1015 63.4191 81.4092 63.4191C79.7169 63.4191 78.3464 64.7926 78.3464 66.4841V79.72Z" fill="#25A0D5"/>
<path d="M130.863 66.5075V89H124.678V66.5075C124.678 64.818 123.305 63.4425 121.615 63.4425C119.925 63.4425 118.55 64.816 118.55 66.5075V89H112.341V66.5095C112.341 64.82 110.969 63.4425 109.278 63.4425C107.588 63.4425 106.213 64.818 106.213 66.5095V89H100.028V66.5095C100.028 64.8578 98.7134 63.5061 97.0747 63.4445V57.2529C99.3947 57.2827 101.51 58.1633 103.121 59.6004C104.756 58.1394 106.913 57.2529 109.278 57.2529C111.644 57.2529 113.799 58.1394 115.434 59.6004C115.438 59.6043 115.44 59.6063 115.444 59.6103C115.448 59.6083 115.452 59.6043 115.456 59.6004C117.09 58.1394 119.247 57.2529 121.613 57.2529C122.686 57.2529 123.716 57.4358 124.676 57.7737C128.277 59.0379 130.861 62.4726 130.861 66.5075H130.863Z" fill="#25A0D5"/>
<path d="M68.6911 66.5075V89H62.5059V66.5075C62.5059 64.818 61.1334 63.4425 59.4431 63.4425C57.7528 63.4425 56.3783 64.816 56.3783 66.5075V89H50.1692V66.5095C50.1692 64.82 48.7967 63.4425 47.1064 63.4425C45.4161 63.4425 44.0416 64.818 44.0416 66.5095V89H37.8564V66.5095C37.8564 64.8578 36.5415 63.5061 34.9028 63.4445V57.2529C37.2228 57.2827 39.3382 58.1633 40.949 59.6004C42.5837 58.1394 44.7408 57.2529 47.1064 57.2529C49.4721 57.2529 51.6272 58.1394 53.2618 59.6004C53.2658 59.6043 53.2678 59.6063 53.2718 59.6103C53.2758 59.6083 53.2797 59.6043 53.2837 59.6004C54.9184 58.1394 57.0755 57.2529 59.4411 57.2529C60.5137 57.2529 61.5446 57.4358 62.5039 57.7737C66.105 59.0379 68.6891 62.4726 68.6891 66.5075H68.6911Z" fill="#25A0D5"/>
<path opacity="0.49" d="M80.8848 19.616V33.8676C80.8868 33.8517 80.8868 33.8398 80.8868 33.8239V19.5166C80.8848 19.5504 80.8848 19.5822 80.8848 19.616Z" fill="#231F20"/>
<path d="M143.506 6.84355C142.205 2.88014 138.478 0.0198767 134.087 0.0198767C131.562 0.0198767 129.262 0.962033 127.512 2.51639C125.49 4.30927 124.203 6.92107 124.173 9.83301C124.175 9.83699 124.175 9.84096 124.173 9.84891C124.175 9.8668 124.175 9.88469 124.175 9.90258V33.8043C124.175 33.8282 124.175 33.852 124.173 33.8779C124.175 33.8799 124.175 33.8819 124.173 33.8838C124.132 35.6588 122.676 37.09 120.892 37.09H103.997C102.187 37.09 100.714 35.6151 100.714 33.8043V19.6163C100.714 15.2912 97.9447 11.608 94.0834 10.2524C93.0565 9.89264 91.9502 9.69586 90.8001 9.69586C89.6501 9.69586 88.5457 9.89066 87.5208 10.2524C87.5168 10.2544 87.5128 10.2544 87.5069 10.2564C83.6794 11.604 80.9304 15.2355 80.8907 19.517V33.8242C80.8907 33.8401 80.8906 33.852 80.8887 33.8679C80.8668 35.6588 79.401 37.1098 77.6074 37.1098H60.7122C58.9027 37.1098 57.4289 35.635 57.4289 33.8242V9.92047C57.4289 6.97872 56.1478 4.33312 54.1139 2.51639C52.36 0.954082 50.0519 0.00397534 47.5234 0V6.63485C49.327 6.6428 50.7928 8.11368 50.7928 9.92047V33.8222C50.7928 36.764 52.072 39.4096 54.1079 41.2263C55.8578 42.7926 58.1718 43.7427 60.7063 43.7427H77.6014C80.1398 43.7427 82.4558 42.7866 84.2117 41.2144C85.9596 42.7767 88.2676 43.7228 90.7961 43.7228C93.3246 43.7228 95.6446 42.7727 97.3945 41.2064C99.1444 42.7727 101.458 43.7228 103.993 43.7228H120.888C123.411 43.7228 125.715 42.7787 127.465 41.2263C129.49 39.4255 130.776 36.8097 130.801 33.8918V33.8759C130.799 33.862 130.799 33.852 130.799 33.8381V9.94035C130.799 9.92643 130.799 9.91451 130.801 9.90059V9.8668C130.839 8.08585 132.297 6.65274 134.083 6.65274C135.868 6.65274 137.366 8.1256 137.366 9.93836V33.8381C137.366 33.9137 137.364 33.9892 137.358 34.0607V43.7407H143.988V16.0206C143.988 15.9451 143.99 15.8696 143.996 15.798V9.94234C143.996 8.86104 143.823 7.8195 143.502 6.84355H143.506ZM94.0814 33.8043C94.0814 35.6151 92.6096 37.09 90.7981 37.09C88.9867 37.09 87.5546 35.6529 87.5188 33.8719C87.5168 33.8501 87.5168 33.8262 87.5168 33.8043V19.6163C87.5168 19.5885 87.5168 19.5587 87.5188 19.5329C87.5625 17.7598 89.0164 16.3307 90.7981 16.3307C92.5798 16.3307 94.0814 17.8056 94.0814 19.6163V33.8043Z" fill="#25A0D5"/>
<path d="M31.4387 82.8107V89.0003C29.079 88.9983 26.9279 88.1118 25.2972 86.6529C23.4003 84.9594 22.2046 82.4887 22.2046 79.7477V48.1895H28.3898V79.7477C28.3898 81.4313 29.7564 82.8048 31.4387 82.8127V82.8107Z" fill="#25A0D5"/>
<path d="M140.591 50.4646C140.591 51.5161 141.455 52.3728 142.518 52.3728H144V55.6206H142.518C141.08 55.6206 139.779 55.0442 138.836 54.11C137.894 53.1778 137.31 51.8898 137.31 50.4646C137.31 47.6183 139.642 45.3086 142.518 45.3086H144V48.5564H142.518C141.455 48.5564 140.591 49.4131 140.591 50.4646Z" fill="#25A0D5"/>
<path d="M6.58644 46.9564V59.8306H13.8184V66.4217H6.58644V79.1229C6.58644 80.9158 8.04237 82.3787 9.83398 82.3847H18.7344V88.9758H9.83398C7.32335 88.9738 5.0312 88.0297 3.29322 86.4753C1.27319 84.6725 0 82.0408 0 79.1229V46.9564C0 44.0346 1.27319 41.4088 3.29322 39.604C5.02921 38.0477 7.32136 37.1075 9.83398 37.1016H18.7344V43.6927H9.83398C8.04237 43.7046 6.58644 45.1655 6.58644 46.9564Z" fill="#25A0D5"/>
</g>
<defs>
<clipPath id="clip0_44_334">
<rect width="144" height="89" fill="white"/>
</clipPath>
</defs>
</svg>
