<svg width="288" height="177" viewBox="0 0 288 177" fill="none" xmlns="http://www.w3.org/2000/svg">
<g clip-path="url(#clip0_44_323)">
<path opacity="0.48" d="M175.029 39.0127V67.2293C175.029 67.2728 175.029 67.3202 175.033 67.3637V38.8467C175.029 38.8981 175.029 38.9574 175.029 39.0127Z" fill="#231F20"/>
<path d="M75.1879 20.433C73.1341 19.7175 70.9214 19.3262 68.6253 19.3262C63.5564 19.3262 58.9324 21.2157 55.4286 24.3307C51.3567 27.9398 48.7984 33.2012 48.7984 39.0517V67.2683C48.7984 70.7904 45.978 73.6722 42.4702 73.7987V86.9978C47.4438 86.9345 51.9765 85.0568 55.4286 81.9932C58.9324 85.1082 63.5564 86.9978 68.6253 86.9978C73.6942 86.9978 78.3183 85.1082 81.8181 81.9932C82.1001 81.7442 82.3742 81.4833 82.6404 81.2185C86.2276 77.6489 88.4482 72.7155 88.4482 67.2683V39.0517C88.4482 30.4499 82.9105 23.129 75.1879 20.433ZM75.1879 67.2643C75.1879 70.8655 72.2443 73.7987 68.6253 73.7987C65.0063 73.7987 62.0587 70.8655 62.0587 67.2643V39.0477C62.0587 35.4465 65.0024 32.5174 68.6253 32.5174C72.2482 32.5174 75.1879 35.4465 75.1879 39.0477V67.2643Z" fill="#25A0D5"/>
<path d="M156.692 114.851C158.611 114.183 160.673 113.815 162.818 113.815C167.549 113.815 171.859 115.578 175.133 118.484C178.93 121.852 181.318 126.762 181.318 132.217V158.54C181.318 161.825 183.948 164.513 187.225 164.635V176.949C182.585 176.89 178.354 175.138 175.133 172.28C171.863 175.186 167.549 176.949 162.818 176.949C158.087 176.949 153.776 175.186 150.507 172.28C150.245 172.047 149.987 171.806 149.74 171.557C146.391 168.225 144.322 163.623 144.322 158.54V132.217C144.322 124.192 149.49 117.361 156.692 114.847V114.851ZM156.692 158.544C156.692 161.904 159.437 164.643 162.818 164.643C166.198 164.643 168.947 161.908 168.947 158.544V132.221C168.947 128.861 166.202 126.125 162.818 126.125C159.433 126.125 156.692 128.857 156.692 132.221V158.544Z" fill="#25A0D5"/>
<path d="M261.726 132.268V177H249.355V132.268C249.355 128.907 246.61 126.172 243.229 126.172C239.849 126.172 237.1 128.904 237.1 132.268V177H224.682V132.271C224.682 128.911 221.937 126.172 218.556 126.172C215.175 126.172 212.426 128.907 212.426 132.271V177H200.056V132.271C200.056 128.987 197.426 126.298 194.149 126.176V113.862C198.789 113.922 203.02 115.673 206.241 118.531C209.511 115.625 213.825 113.862 218.556 113.862C223.287 113.862 227.598 115.625 230.867 118.531C230.875 118.539 230.879 118.543 230.887 118.551C230.895 118.547 230.903 118.539 230.911 118.531C234.18 115.625 238.494 113.862 243.225 113.862C245.371 113.862 247.432 114.226 249.351 114.898C256.553 117.412 261.722 124.243 261.722 132.268H261.726Z" fill="#25A0D5"/>
<path d="M137.382 132.268V177H125.011V132.268C125.011 128.907 122.266 126.172 118.886 126.172C115.505 126.172 112.756 128.904 112.756 132.268V177H100.338V132.271C100.338 128.911 97.593 126.172 94.2124 126.172C90.8317 126.172 88.0828 128.907 88.0828 132.271V177H75.7123V132.271C75.7123 128.987 73.0825 126.298 69.8052 126.176V113.862C74.4451 113.922 78.6758 115.673 81.8975 118.531C85.1669 115.625 89.4811 113.862 94.2124 113.862C98.9436 113.862 103.254 115.625 106.523 118.531C106.531 118.539 106.535 118.543 106.543 118.551C106.551 118.547 106.559 118.539 106.567 118.531C109.836 115.625 114.15 113.862 118.882 113.862C121.027 113.862 123.089 114.226 125.007 114.898C132.21 117.412 137.378 124.243 137.378 132.268H137.382Z" fill="#25A0D5"/>
<path opacity="0.49" d="M161.769 39.0121V67.3552C161.773 67.3236 161.773 67.2998 161.773 67.2682V38.8145C161.769 38.8817 161.769 38.9449 161.769 39.0121Z" fill="#231F20"/>
<path d="M287.011 13.6102C284.409 5.72791 276.956 0.0395301 268.173 0.0395301C263.124 0.0395301 258.524 1.91326 255.024 5.00451C250.98 8.57013 248.406 13.7644 248.346 19.5555C248.35 19.5634 248.35 19.5714 248.346 19.5872C248.35 19.6227 248.35 19.6583 248.35 19.6939V67.2288C248.35 67.2763 248.35 67.3237 248.346 67.3751C248.35 67.3791 248.35 67.383 248.346 67.387C248.263 70.917 245.351 73.7632 241.783 73.7632H207.993C204.374 73.7632 201.427 70.83 201.427 67.2288V39.0123C201.427 30.4105 195.889 23.0856 188.166 20.3896C186.113 19.6741 183.9 19.2828 181.6 19.2828C179.3 19.2828 177.091 19.6702 175.041 20.3896C175.033 20.3936 175.025 20.3936 175.013 20.3975C167.358 23.0777 161.86 30.2998 161.781 38.8146V67.2684C161.781 67.3 161.781 67.3237 161.777 67.3553C161.733 70.917 158.801 73.8027 155.214 73.8027H121.424C117.805 73.8027 114.857 70.8696 114.857 67.2684V19.7295C114.857 13.879 112.295 8.61756 108.227 5.00451C104.719 1.89744 100.103 0.00790602 95.0464 0V13.1951C98.6534 13.211 101.585 16.1362 101.585 19.7295V67.2644C101.585 73.1149 104.143 78.3763 108.215 81.9894C111.715 85.1044 116.343 86.9939 121.412 86.9939H155.202C160.279 86.9939 164.911 85.0925 168.423 81.9657C171.919 85.0727 176.535 86.9544 181.592 86.9544C186.649 86.9544 191.289 85.0648 194.789 81.9499C198.288 85.0648 202.916 86.9544 207.985 86.9544H241.776C246.821 86.9544 251.429 85.0767 254.929 81.9894C258.98 78.408 261.551 73.2058 261.602 67.4028V67.3711C261.598 67.3435 261.598 67.3237 261.598 67.296V19.769C261.598 19.7413 261.598 19.7176 261.602 19.6899V19.6227C261.678 16.0808 264.594 13.2307 268.165 13.2307C271.736 13.2307 274.732 16.1599 274.732 19.7651V67.296C274.732 67.4463 274.728 67.5965 274.716 67.7388V86.9899H287.976V31.8613C287.976 31.711 287.98 31.5608 287.992 31.4185V19.773C287.992 17.6225 287.646 15.5511 287.003 13.6102H287.011ZM188.162 67.2288C188.162 70.83 185.219 73.7632 181.596 73.7632C177.973 73.7632 175.109 70.9051 175.037 67.3633C175.033 67.3198 175.033 67.2723 175.033 67.2288V39.0123C175.033 38.9569 175.033 38.8976 175.037 38.8462C175.125 35.3201 178.032 32.4779 181.596 32.4779C185.159 32.4779 188.162 35.4111 188.162 39.0123V67.2288Z" fill="#25A0D5"/>
<path d="M62.877 164.69V177C58.1576 176.996 53.8554 175.233 50.5939 172.332C46.8002 168.964 44.4087 164.05 44.4087 158.599V95.8369H56.7791V158.599C56.7791 161.947 59.5122 164.679 62.877 164.694V164.69Z" fill="#25A0D5"/>
<path d="M281.183 100.363C281.183 102.454 282.911 104.157 285.037 104.157H288V110.617H285.037C282.16 110.617 279.558 109.47 277.672 107.612C275.789 105.758 274.621 103.197 274.621 100.363C274.621 94.7018 279.284 90.1084 285.037 90.1084H288V96.5676H285.037C282.911 96.5676 281.183 98.2714 281.183 100.363Z" fill="#25A0D5"/>
<path d="M13.1729 93.3861V118.99H27.6368V132.098H13.1729V157.358C13.1729 160.923 16.0847 163.833 19.668 163.845H37.4688V176.953H19.668C14.6467 176.949 10.0624 175.071 6.58644 171.98C2.54639 168.395 0 163.161 0 157.358V93.3861C0 87.5752 2.54639 82.3533 6.58644 78.7639C10.0584 75.6687 14.6427 73.799 19.668 73.7871H37.4688V86.8953H19.668C16.0847 86.919 13.1729 89.8245 13.1729 93.3861Z" fill="#25A0D5"/>
</g>
<defs>
<clipPath id="clip0_44_323">
<rect width="288" height="177" fill="white"/>
</clipPath>
</defs>
</svg>
