<svg width="50" height="49" viewBox="0 0 50 49" fill="none" xmlns="http://www.w3.org/2000/svg">
<path d="M24.521 43.8421C27.787 43.8422 30.9977 43.0007 33.8419 41.3994C36.6861 39.798 39.0674 37.491 40.755 34.702C42.4426 31.9129 43.3792 28.7364 43.4742 25.4801C43.5693 22.2239 42.8194 18.9984 41.2973 16.1162C41.2123 15.9593 41.0687 15.8423 40.8976 15.7907C40.7265 15.7391 40.5419 15.757 40.384 15.8406C40.2261 15.9241 40.1078 16.0666 40.0548 16.2368C40.0017 16.4071 40.0183 16.5913 40.101 16.7494C41.4341 19.271 42.1299 22.0791 42.1279 24.9299C41.1629 48.2238 7.87883 48.224 6.91401 24.9297C6.75093 11.9062 21.2706 3.17692 32.7227 9.39039C32.8814 9.47435 33.067 9.49199 33.2388 9.43944C33.4105 9.38689 33.5542 9.26846 33.6384 9.11019C33.7226 8.95192 33.7403 8.76679 33.6876 8.59551C33.6349 8.42423 33.5162 8.28085 33.3575 8.19689C30.6338 6.7638 27.6004 6.0157 24.521 6.01758C-0.630177 7.05408 -0.629885 42.8061 24.521 43.8421Z" fill="url(#paint0_linear_71_308)"/>
<path d="M24.5522 19.4283C25.1493 19.4279 25.7422 19.5267 26.3066 19.7207C26.4795 19.7801 26.6689 19.7686 26.8333 19.6887C26.9976 19.6088 27.1234 19.467 27.183 19.2946C27.4859 18.078 25.3384 18.1266 24.5523 18.0527C15.4062 18.4298 15.4066 31.4305 24.5523 31.8071C26.3803 31.8051 28.1329 31.0799 29.4255 29.7906C30.7181 28.5013 31.4452 26.7533 31.4473 24.93C31.3768 24.1317 31.4235 22.0121 30.2091 22.313C30.1234 22.3424 30.0444 22.3883 29.9766 22.4482C29.9088 22.508 29.8534 22.5806 29.8137 22.6618C29.7741 22.743 29.7508 22.8311 29.7453 22.9213C29.7398 23.0114 29.7522 23.1018 29.7817 23.1872C29.9736 23.7482 30.0704 24.3372 30.0683 24.93C29.7918 32.2174 19.3126 32.2177 19.0362 24.9299C19.0379 23.4713 19.6196 22.0729 20.6537 21.0415C21.6878 20.0101 23.0898 19.4299 24.5522 19.4283Z" fill="url(#paint1_linear_71_308)"/>
<path d="M31.0515 14.5699C31.0949 14.492 31.1224 14.4063 31.1325 14.3177C31.1426 14.2292 31.1352 14.1395 31.1106 14.0538C31.0859 13.9682 31.0446 13.8882 30.989 13.8184C30.9334 13.7487 30.8645 13.6905 30.7864 13.6473C28.8734 12.5912 26.723 12.0365 24.5366 12.0352C7.38807 12.7421 7.38829 37.118 24.5367 37.8246C26.7856 37.8259 28.9959 37.2417 30.9491 36.1298C32.9022 35.0179 34.5306 33.4167 35.6731 31.4847C36.8157 29.5526 37.4328 27.3566 37.4636 25.1137C37.4943 22.8708 36.9376 20.6587 35.8484 18.6962C35.8053 18.6179 35.7471 18.5489 35.6771 18.4931C35.6072 18.4372 35.5269 18.3958 35.4408 18.371C35.3548 18.3462 35.2647 18.3386 35.1756 18.3486C35.0866 18.3587 35.0005 18.3861 34.9221 18.4294C34.8438 18.4728 34.7748 18.5311 34.7191 18.6011C34.6634 18.6711 34.6222 18.7513 34.5977 18.8373C34.5731 18.9232 34.5659 19.0131 34.5763 19.1018C34.5867 19.1906 34.6146 19.2764 34.6583 19.3544C38.9712 26.8149 33.1774 36.6167 24.5364 36.4672C21.4696 36.4638 18.5295 35.2471 16.3609 33.0842C14.1924 30.9213 12.9726 27.9887 12.9692 24.9299C12.821 16.3115 22.6457 10.532 30.1266 14.8345C30.2048 14.8779 30.2907 14.9055 30.3795 14.9156C30.4683 14.9258 30.5583 14.9184 30.6442 14.8938C30.7301 14.8692 30.8103 14.8279 30.8802 14.7723C30.9501 14.7168 31.0083 14.648 31.0515 14.5699Z" fill="url(#paint2_linear_71_308)"/>
<path d="M32.3344 12.6306L32.5876 15.9372L23.9024 24.6224C23.7775 24.7526 23.7086 24.9265 23.7105 25.1069C23.7124 25.2873 23.7848 25.4598 23.9124 25.5873C24.04 25.7149 24.2125 25.7873 24.3928 25.7892C24.5732 25.791 24.7472 25.7221 24.8773 25.5972L33.5624 16.912L36.869 17.1652C36.9681 17.1728 37.0676 17.1588 37.1608 17.1243C37.254 17.0898 37.3387 17.0356 37.4089 16.9653L42.4266 11.9479C42.5179 11.8539 42.5807 11.736 42.6078 11.6077C42.6348 11.4795 42.6251 11.3463 42.5795 11.2234C42.534 11.1005 42.4547 10.993 42.3506 10.9133C42.2466 10.8336 42.1221 10.785 41.9916 10.7731L38.9587 10.5408L38.7264 7.50785C38.7145 7.37737 38.6659 7.25294 38.5862 7.14893C38.5065 7.04493 38.399 6.9656 38.2761 6.92012C38.1532 6.87464 38.02 6.86486 37.8918 6.89191C37.7636 6.91896 37.6456 6.98174 37.5516 7.073L32.5344 12.0906C32.464 12.1608 32.4097 12.2455 32.3752 12.3387C32.3407 12.4319 32.3267 12.5315 32.3344 12.6306ZM37.4661 9.10815C37.742 12.3187 37.1991 11.7535 40.3914 12.0334L36.6582 15.7662L33.9414 15.5581L33.7334 12.8413L37.4661 9.10815Z" fill="url(#paint3_linear_71_308)"/>
<defs>
<linearGradient id="paint0_linear_71_308" x1="24.57" y1="6.01758" x2="24.57" y2="43.8421" gradientUnits="userSpaceOnUse">
<stop stop-color="#36A1BC"/>
<stop offset="1" stop-color="#0B4F6A"/>
</linearGradient>
<linearGradient id="paint1_linear_71_308" x1="24.5701" y1="18.0527" x2="24.5701" y2="31.8071" gradientUnits="userSpaceOnUse">
<stop stop-color="#36A1BC"/>
<stop offset="1" stop-color="#0B4F6A"/>
</linearGradient>
<linearGradient id="paint2_linear_71_308" x1="24.57" y1="12.0352" x2="24.57" y2="37.8246" gradientUnits="userSpaceOnUse">
<stop stop-color="#36A1BC"/>
<stop offset="1" stop-color="#0B4F6A"/>
</linearGradient>
<linearGradient id="paint3_linear_71_308" x1="33.1666" y1="6.87695" x2="33.1666" y2="25.7892" gradientUnits="userSpaceOnUse">
<stop stop-color="#36A1BC"/>
<stop offset="1" stop-color="#0B4F6A"/>
</linearGradient>
</defs>
</svg>
