<svg width="28" height="28" viewBox="0 0 28 28" fill="none" xmlns="http://www.w3.org/2000/svg">
<g id="money-4" clip-path="url(#clip0_83_300)">
<path id="Vector" d="M24.9375 15.9751C23.7314 15.9751 22.75 14.9937 22.75 13.7876C22.75 13.546 22.5541 13.3501 22.3125 13.3501H5.6875C5.44589 13.3501 5.25 13.546 5.25 13.7876C5.25 14.9937 4.26862 15.9751 3.0625 15.9751C2.82089 15.9751 2.625 16.171 2.625 16.4126V22.3124C2.625 22.554 2.82089 22.7499 3.0625 22.7499C4.26862 22.7499 5.25 23.7313 5.25 24.9374C5.25 25.179 5.44589 25.3749 5.6875 25.3749H14C14.2416 25.3749 14.4375 25.179 14.4375 24.9374C14.4375 24.6958 14.2416 24.4999 14 24.4999H6.09381C5.90134 23.1607 4.8392 22.0986 3.5 21.9061V16.8189C4.83921 16.6264 5.90134 15.5643 6.09381 14.2251H21.9062C22.0987 15.5643 23.1608 16.6264 24.5 16.8189V21.9061C23.1608 22.0986 22.0987 23.1607 21.9062 24.4999H15.8367C15.5951 24.4999 15.3992 24.6958 15.3992 24.9374C15.3992 25.179 15.5951 25.3749 15.8367 25.3749H22.3125C22.5541 25.3749 22.75 25.179 22.75 24.9374C22.75 23.7313 23.7314 22.7499 24.9375 22.7499C25.1791 22.7499 25.375 22.554 25.375 22.3124V16.4126C25.375 16.171 25.1791 15.9751 24.9375 15.9751Z" fill="#25A0D5"/>
<path id="Vector_2" d="M17.9375 19.3628C17.9375 17.1917 16.1711 15.4253 14 15.4253C11.829 15.4253 10.0625 17.1917 10.0625 19.3628C10.0625 21.5338 11.829 23.3003 14 23.3003C16.1711 23.3003 17.9375 21.5338 17.9375 19.3628ZM14 22.4253C12.3113 22.4253 10.9375 21.0515 10.9375 19.3628C10.9375 17.6741 12.3113 16.3003 14 16.3003C15.6887 16.3003 17.0625 17.6741 17.0625 19.3628C17.0625 21.0515 15.6887 22.4253 14 22.4253Z" fill="#25A0D5"/>
<path id="Vector_3" d="M25.8125 11.5999H24.4517L19.8845 1.64062C19.7386 1.32189 19.4771 1.079 19.1481 0.957022C18.8202 0.835257 18.4635 0.848714 18.1443 0.994406L11.817 3.89584C11.5974 3.99667 11.501 4.25643 11.6017 4.47604C11.7023 4.69542 11.9623 4.79113 12.1819 4.69137L18.5092 1.78994C18.6151 1.74081 18.7337 1.73632 18.8437 1.77733C18.9533 1.81792 19.0402 1.89888 19.0889 2.00527L23.4888 11.5999H22.7425L19.7266 5.02333C19.6258 4.80395 19.3664 4.70781 19.1464 4.808C18.1979 5.24294 17.0719 4.8253 16.6365 3.87639C16.5361 3.65679 16.2766 3.56087 16.0566 3.66106L11.7231 5.64829L8.32619 3.69994C8.0222 3.52541 7.66822 3.48034 7.32985 3.57134C6.99147 3.6632 6.70906 3.88109 6.53453 4.18529L2.28172 11.5999C1.52645 11.5531 0.872131 12.1514 0.875009 12.9124V25.8123C0.875009 26.536 1.46375 27.1248 2.18751 27.1248H25.8125C26.5363 27.1248 27.125 26.536 27.125 25.8123V12.9124C27.125 12.1887 26.5363 11.5999 25.8125 11.5999ZM16.0551 4.6245C16.7162 5.6155 17.9514 6.07415 19.0992 5.75435L21.6655 11.351L12.6559 6.18336L16.0551 4.6245ZM7.29353 4.62066C7.35185 4.51919 7.44605 4.44655 7.55885 4.41601C7.67143 4.3861 7.78935 4.40084 7.89082 4.45894L20.3406 11.5999H18.9773L10.1636 6.54454C10.0629 6.48708 9.94352 6.47255 9.83137 6.50182C9.71943 6.53215 9.62416 6.60585 9.56626 6.70647C9.04695 7.6118 7.88719 7.92583 6.98228 7.40673C6.77207 7.28624 6.50504 7.35887 6.38499 7.56865L4.07273 11.5999H3.29063L7.29353 4.62066ZM17.2183 11.5999H5.08165L6.94361 8.35351C8.05787 8.77605 9.32978 8.43126 10.0777 7.50414L17.2183 11.5999ZM26.25 25.8123C26.25 26.0535 26.0537 26.2498 25.8125 26.2498H2.18751C1.94633 26.2498 1.75001 26.0535 1.75001 25.8123V12.9124C1.75001 12.6713 1.94633 12.4749 2.18751 12.4749H25.8125C26.0537 12.4749 26.25 12.6713 26.25 12.9124V25.8123Z" fill="#25A0D5"/>
</g>
<defs>
<clipPath id="clip0_83_300">
<rect width="28" height="28" fill="white"/>
</clipPath>
</defs>
</svg>
