<svg width="23" height="22" viewBox="0 0 23 22" fill="none" xmlns="http://www.w3.org/2000/svg">
<g id="phone-flip-2 1" clip-path="url(#clip0_172_4235)">
<path id="Vector" d="M20.5062 2.5497L19.5822 1.74111C18.7407 0.899526 17.3134 0.858272 16.4059 1.78237L14.8632 3.80383C13.9969 4.67017 13.9969 6.08107 14.8632 6.93916L16.0924 8.20154C14.7559 11.3369 12.2892 13.8121 9.25316 15.0497L7.99091 13.8204C7.57016 13.3996 7.01741 13.1686 6.42341 13.1686C5.82941 13.1686 5.27666 13.3996 4.89716 13.7874L2.80167 15.4045C1.93542 16.2709 1.93542 17.6818 2.78517 18.5234L3.62667 19.4887C4.53417 20.3963 5.75516 20.8996 7.08341 20.8996C13.4772 20.8996 21.9499 12.4177 21.9499 6.03156C21.9499 4.71142 21.4467 3.48204 20.5227 2.55795L20.5062 2.5497ZM7.06691 20.0663C5.96141 20.0663 4.94666 19.6537 4.21242 18.9194L3.37092 17.9458C2.82642 17.4012 2.82642 16.5184 3.32967 16.0068L5.42516 14.3897C5.68916 14.1257 6.03566 13.9771 6.41516 13.9771C6.79466 13.9771 7.14116 14.1257 7.40516 14.3897L8.86541 15.8171C8.98091 15.9326 9.14591 15.9656 9.30266 15.9078C12.7429 14.596 15.5397 11.7989 16.9669 8.25104C17.0247 8.10253 16.9917 7.92926 16.8762 7.8055L15.4489 6.34509C14.9044 5.80054 14.9044 4.91769 15.4819 4.33188L17.0247 2.31042C17.5692 1.76587 18.4519 1.76587 19.0212 2.32692L19.9452 3.13551C20.6959 3.88634 21.1084 4.90119 21.1084 6.00681C21.1084 11.9144 12.9739 20.0498 7.06691 20.0498V20.0663Z" fill="rgb(6 182 212)" stroke="#25A0D5" stroke-width="0.25"/>
</g>
<defs>
<clipPath id="clip0_172_4235">
<rect width="22" height="22" fill="white" transform="translate(0.5)"/>
</clipPath>
</defs>
</svg>
