<svg width="28" height="26" viewBox="0 0 28 26" fill="none" xmlns="http://www.w3.org/2000/svg">
<g id="Icon">
<path id="Path" d="M1.43333 17.3083C1.19413 17.3083 1 17.1229 1 16.8945V2.24138C1 1.55697 1.58327 1 2.3 1H25.7C26.4167 1 27 1.55697 27 2.24138V6.30629C27 6.5347 26.8059 6.72008 26.5667 6.72008C26.3275 6.72008 26.1333 6.5347 26.1333 6.30629V2.24138C26.1333 2.01379 25.9383 1.82759 25.7 1.82759H2.3C2.06167 1.82759 1.86667 2.01379 1.86667 2.24138V16.8945C1.86667 17.1229 1.67253 17.3083 1.43333 17.3083Z" fill="#25A0D5" stroke="#25A0D5" stroke-width="0.6"/>
<path id="Path_2" d="M13.9998 25H9.23314C8.99394 25 8.7998 24.8146 8.7998 24.5862C8.7998 24.3578 8.99394 24.1724 9.23314 24.1724H10.0998C10.8165 24.1724 11.3998 23.6154 11.3998 22.931V20.862C11.3998 20.6336 11.5939 20.4482 11.8331 20.4482C12.0723 20.4482 12.2665 20.6336 12.2665 20.862V22.931C12.2665 23.3969 12.1044 23.8264 11.8323 24.1724H13.9998C14.239 24.1724 14.4331 24.3578 14.4331 24.5862C14.4331 24.8146 14.239 25 13.9998 25Z" fill="#25A0D5" stroke="#25A0D5" stroke-width="0.6"/>
<path id="Path_3" d="M15.0111 20.8621H2.3C1.58327 20.8621 1 20.3051 1 19.6207V17.1379C1 16.9095 1.19413 16.7241 1.43333 16.7241H15.0111C15.2503 16.7241 15.4444 16.9095 15.4444 17.1379C15.4444 17.3663 15.2503 17.5517 15.0111 17.5517H1.86667V19.6207C1.86667 19.8483 2.06167 20.0345 2.3 20.0345H15.0111C15.2503 20.0345 15.4444 20.2198 15.4444 20.4483C15.4444 20.6767 15.2503 20.8621 15.0111 20.8621Z" fill="#25A0D5" stroke="#25A0D5" stroke-width="0.6"/>
<path id="Path_4" d="M18.7668 6.79292H23.1002C23.3394 6.79292 23.5335 6.60754 23.5335 6.37913C23.5335 6.15071 23.3394 5.96533 23.1002 5.96533H18.7668C18.5276 5.96533 18.3335 6.15071 18.3335 6.37913C18.3335 6.60754 18.5276 6.79292 18.7668 6.79292Z" fill="#25A0D5" stroke="#25A0D5" stroke-width="0.6"/>
<path id="Path_5" d="M20.5002 23.3447H21.3669C21.6061 23.3447 21.8002 23.1593 21.8002 22.9309C21.8002 22.7025 21.6061 22.5171 21.3669 22.5171H20.5002C20.261 22.5171 20.0669 22.7025 20.0669 22.9309C20.0669 23.1593 20.261 23.3447 20.5002 23.3447Z" fill="#25A0D5" stroke="#25A0D5" stroke-width="0.6"/>
<g id="Shape">
<path fill-rule="evenodd" clip-rule="evenodd" d="M17.0334 25.0002H24.8334C26.0285 25.0002 27 24.0725 27 22.9312V6.37951C27 5.23827 26.0285 4.31055 24.8334 4.31055H17.0334C15.8382 4.31055 14.8667 5.23827 14.8667 6.37951V22.9312C14.8667 24.0725 15.8382 25.0002 17.0334 25.0002ZM15.7334 6.37951C15.7334 5.6951 16.3166 5.13813 17.0334 5.13813H24.8334C25.5501 5.13813 26.1334 5.6951 26.1334 6.37951V22.9312C26.1334 23.6157 25.5501 24.1726 24.8334 24.1726H17.0334C16.3166 24.1726 15.7334 23.6157 15.7334 22.9312V6.37951Z" fill="#25A0D5"/>
<path d="M24.8334 24.7002H17.0334V25.3002H24.8334V24.7002ZM26.7 22.9312C26.7 23.8939 25.876 24.7002 24.8334 24.7002V25.3002C26.181 25.3002 27.3 24.2511 27.3 22.9312H26.7ZM26.7 6.37951V22.9312H27.3V6.37951H26.7ZM24.8334 4.61055C25.876 4.61055 26.7 5.41685 26.7 6.37951H27.3C27.3 5.05969 26.181 4.01055 24.8334 4.01055V4.61055ZM17.0334 4.61055H24.8334V4.01055H17.0334V4.61055ZM15.1667 6.37951C15.1667 5.41685 15.9907 4.61055 17.0334 4.61055V4.01055C15.6857 4.01055 14.5667 5.05969 14.5667 6.37951H15.1667ZM15.1667 22.9312V6.37951H14.5667V22.9312H15.1667ZM17.0334 24.7002C15.9907 24.7002 15.1667 23.8939 15.1667 22.9312H14.5667C14.5667 24.2511 15.6857 25.3002 17.0334 25.3002V24.7002ZM17.0334 4.83813C16.1641 4.83813 15.4334 5.51652 15.4334 6.37951H16.0334C16.0334 5.87368 16.4691 5.43813 17.0334 5.43813V4.83813ZM24.8334 4.83813H17.0334V5.43813H24.8334V4.83813ZM26.4334 6.37951C26.4334 5.51652 25.7026 4.83813 24.8334 4.83813V5.43813C25.3976 5.43813 25.8334 5.87368 25.8334 6.37951H26.4334ZM26.4334 22.9312V6.37951H25.8334V22.9312H26.4334ZM24.8334 24.4726C25.7026 24.4726 26.4334 23.7942 26.4334 22.9312H25.8334C25.8334 23.4371 25.3976 23.8726 24.8334 23.8726V24.4726ZM17.0334 24.4726H24.8334V23.8726H17.0334V24.4726ZM15.4334 22.9312C15.4334 23.7942 16.1641 24.4726 17.0334 24.4726V23.8726C16.4691 23.8726 16.0334 23.4371 16.0334 22.9312H15.4334ZM15.4334 6.37951V22.9312H16.0334V6.37951H15.4334Z" fill="#25A0D5"/>
</g>
</g>
</svg>
