<svg width="25" height="24" viewBox="0 0 25 24" fill="none" xmlns="http://www.w3.org/2000/svg">
<g id="Iconsax/Linear/profile">
<path id="Vector" d="M12.6597 10.8697C12.5597 10.8597 12.4397 10.8597 12.3297 10.8697C11.1819 10.8308 10.0944 10.3466 9.29736 9.5197C8.50034 8.69283 8.05647 7.5882 8.05973 6.43975C8.05973 3.98974 10.0397 1.99974 12.4997 1.99974C13.0821 1.98924 13.6609 2.09355 14.203 2.30672C14.7451 2.5199 15.2399 2.83776 15.6592 3.24216C16.0784 3.64656 16.4139 4.12957 16.6465 4.66363C16.8791 5.19769 17.0042 5.77233 17.0147 6.35475C17.0252 6.93716 16.9209 7.51594 16.7077 8.05804C16.4946 8.60014 16.1767 9.09494 15.7723 9.5142C15.3679 9.93345 14.8849 10.269 14.3508 10.5015C13.8168 10.7341 13.2421 10.8592 12.6597 10.8697ZM7.65973 14.5597C5.23973 16.1797 5.23973 18.8197 7.65973 20.4297C10.4097 22.2697 14.9197 22.2697 17.6697 20.4297C20.0897 18.8097 20.0897 16.1697 17.6697 14.5597C14.9297 12.7297 10.4197 12.7297 7.65973 14.5597Z" stroke="rgb(6 182 212)" stroke-width="1.5" stroke-linecap="round" stroke-linejoin="round"/>
</g>
</svg>
